<svg version="1.1" viewBox="0.0 0.0 960.0 540.0" fill="none" stroke="none" stroke-linecap="square" stroke-miterlimit="10" xmlns:xlink="http://www.w3.org/1999/xlink" xmlns="http://www.w3.org/2000/svg"><clipPath id="g13df1b65d05_0_51.0"><path d="m0 0l960.0 0l0 540.0l-960.0 0l0 -540.0z" clip-rule="nonzero"/></clipPath><g clip-path="url(#g13df1b65d05_0_51.0)"><path fill="#ffffff" d="m0 0l960.0 0l0 540.0l-960.0 0z" fill-rule="evenodd"/><path fill="#000000" fill-opacity="0.0" d="m317.1413 149.66016l0 0c0 -37.727165 30.583923 -68.31107 68.3111 -68.31107l282.8109 0l0 0c18.117188 0 35.49243 7.1970367 48.303223 20.00785c12.810791 12.810814 20.007874 30.186005 20.007874 48.303223l0 273.2361c0 37.727173 -30.583923 68.311066 -68.3111 68.311066l-282.8109 0c-37.727173 0 -68.3111 -30.583893 -68.3111 -68.311066z" fill-rule="evenodd"/><path stroke="#6366f1" stroke-width="4.0" stroke-linejoin="round" stroke-linecap="butt" d="m317.1413 149.66016l0 0c0 -37.727165 30.583923 -68.31107 68.3111 -68.31107l282.8109 0l0 0c18.117188 0 35.49243 7.1970367 48.303223 20.00785c12.810791 12.810814 20.007874 30.186005 20.007874 48.303223l0 273.2361c0 37.727173 -30.583923 68.311066 -68.3111 68.311066l-282.8109 0c-37.727173 0 -68.3111 -30.583893 -68.3111 -68.311066z" fill-rule="evenodd"/><path fill="#000000" fill-opacity="0.0" d="m374.39633 230.21523l19.716522 0l0 42.01573l-19.716522 0z" fill-rule="evenodd"/><defs><radialGradient id="g13df1b65d05_0_51.1" gradientUnits="userSpaceOnUse" gradientTransform="matrix(5.405324221326973 0.0 0.0 5.405324221326973 0.0 0.0)" spreadMethod="pad" cx="66.26474195293159" cy="39.64546420379215" fx="66.26474195293159" fy="39.64546420379215" r="5.405324459075928"><stop offset="0.0" stop-color="#3177ee"/><stop offset="1.0" stop-color="#113d8a"/></radialGradient></defs><path shape-rendering="crispEdges" fill="url(#g13df1b65d05_0_51.1)" d="m337.6614 193.49869l41.041992 0l0 41.595795l-41.041992 0l0 -41.595795z" fill-rule="nonzero"/><defs><radialGradient id="g13df1b65d05_0_51.2" gradientUnits="userSpaceOnUse" gradientTransform="matrix(5.405324221326973 0.0 0.0 5.405324221326973 0.0 0.0)" spreadMethod="pad" cx="66.26474195293159" cy="47.34080287761603" fx="66.26474195293159" fy="47.34080287761603" r="5.405324459075928"><stop offset="0.0" stop-color="#3177ee"/><stop offset="1.0" stop-color="#113d8a"/></radialGradient></defs><path shape-rendering="crispEdges" fill="url(#g13df1b65d05_0_51.2)" d="m337.6614 235.09448l41.041992 0l0 41.595795l-41.041992 0l0 -41.595795z" fill-rule="nonzero"/><defs><radialGradient id="g13df1b65d05_0_51.3" gradientUnits="userSpaceOnUse" gradientTransform="matrix(5.405324221326973 0.0 0.0 5.405324221326973 0.0 0.0)" spreadMethod="pad" cx="66.26474195293159" cy="55.036141551439904" fx="66.26474195293159" fy="55.036141551439904" r="5.405324459075928"><stop offset="0.0" stop-color="#3177ee"/><stop offset="1.0" stop-color="#113d8a"/></radialGradient></defs><path shape-rendering="crispEdges" fill="url(#g13df1b65d05_0_51.3)" d="m337.6614 276.69028l41.041992 0l0 41.595825l-41.041992 0l0 -41.595825z" fill-rule="nonzero"/><defs><radialGradient id="g13df1b65d05_0_51.4" gradientUnits="userSpaceOnUse" gradientTransform="matrix(5.405324221326973 0.0 0.0 5.405324221326973 0.0 0.0)" spreadMethod="pad" cx="66.26474195293159" cy="62.73148022526378" fx="66.26474195293159" fy="62.73148022526378" r="5.405324459075928"><stop offset="0.0" stop-color="#3177ee"/><stop offset="1.0" stop-color="#113d8a"/></radialGradient></defs><path shape-rendering="crispEdges" fill="url(#g13df1b65d05_0_51.4)" d="m337.6614 318.2861l41.041992 0l0 41.595795l-41.041992 0l0 -41.595795z" fill-rule="nonzero"/><defs><radialGradient id="g13df1b65d05_0_51.5" gradientUnits="userSpaceOnUse" gradientTransform="matrix(5.405324221326973 0.0 0.0 5.405324221326973 0.0 0.0)" spreadMethod="pad" cx="66.26474195293159" cy="70.42681889908765" fx="66.26474195293159" fy="70.42681889908765" r="5.405324459075928"><stop offset="0.0" stop-color="#3177ee"/><stop offset="1.0" stop-color="#113d8a"/></radialGradient></defs><path shape-rendering="crispEdges" fill="url(#g13df1b65d05_0_51.5)" d="m337.6614 359.8819l41.041992 0l0 41.595795l-41.041992 0l0 -41.595795z" fill-rule="nonzero"/><path stroke="#4285f4" stroke-width="4.0" stroke-linecap="butt" d="m337.6614 191.49869l0 45.595795" fill-rule="nonzero"/><path stroke="#4285f4" stroke-width="2.0" stroke-linecap="butt" d="m337.6614 237.09448l0 165.38321" fill-rule="nonzero"/><path stroke="#4285f4" stroke-width="4.0" stroke-linecap="butt" d="m378.7034 191.49869l0 45.595795" fill-rule="nonzero"/><path stroke="#4285f4" stroke-width="2.0" stroke-linecap="butt" d="m378.7034 237.09448l0 165.38321" fill-rule="nonzero"/><path stroke="#4285f4" stroke-width="4.0" stroke-linecap="butt" d="m419.7454 191.49869l0 45.595795" fill-rule="nonzero"/><path stroke="#4285f4" stroke-width="2.0" stroke-linecap="butt" d="m419.7454 237.09448l0 165.38321" fill-rule="nonzero"/><path stroke="#4285f4" stroke-width="4.0" stroke-linecap="butt" d="m460.7874 191.49869l0 45.595795" fill-rule="nonzero"/><path stroke="#4285f4" stroke-width="2.0" stroke-linecap="butt" d="m460.7874 237.09448l0 165.38321" fill-rule="nonzero"/><path stroke="#4285f4" stroke-width="4.0" stroke-linecap="butt" d="m501.8294 191.49869l0 45.595795" fill-rule="nonzero"/><path stroke="#4285f4" stroke-width="2.0" stroke-linecap="butt" d="m501.8294 237.09448l0 165.38321" fill-rule="nonzero"/><path stroke="#4285f4" stroke-width="4.0" stroke-linecap="butt" d="m335.6614 193.49869l168.168 0" fill-rule="nonzero"/><path stroke="#4285f4" stroke-width="4.0" stroke-linecap="butt" d="m335.6614 235.09448l168.168 0" fill-rule="nonzero"/><path stroke="#4285f4" stroke-width="2.0" stroke-linecap="butt" d="m336.6614 276.69028l166.168 0" fill-rule="nonzero"/><path stroke="#4285f4" stroke-width="2.0" stroke-linecap="butt" d="m336.6614 318.2861l166.168 0" fill-rule="nonzero"/><path stroke="#4285f4" stroke-width="2.0" stroke-linecap="butt" d="m336.6614 359.8819l166.168 0" fill-rule="nonzero"/><path stroke="#4285f4" stroke-width="2.0" stroke-linecap="butt" d="m336.6614 401.4777l166.168 0" fill-rule="nonzero"/><defs><radialGradient id="g13df1b65d05_0_51.6" gradientUnits="userSpaceOnUse" gradientTransform="matrix(5.405324221326973 0.0 0.0 5.405324221326973 0.0 0.0)" spreadMethod="pad" cx="101.769737146647" cy="27.340108785313816" fx="101.769737146647" fy="27.340108785313816" r="5.405324459075928"><stop offset="0.0" stop-color="#51ab2a"/><stop offset="1.0" stop-color="#203e13"/></radialGradient></defs><path shape-rendering="crispEdges" fill="url(#g13df1b65d05_0_51.6)" d="m529.57745 126.98425l41.041992 0l0 41.595795l-41.041992 0l0 -41.595795z" fill-rule="nonzero"/><defs><radialGradient id="g13df1b65d05_0_51.7" gradientUnits="userSpaceOnUse" gradientTransform="matrix(5.405324221326973 0.0 0.0 5.405324221326973 0.0 0.0)" spreadMethod="pad" cx="101.769737146647" cy="35.03544745913769" fx="101.769737146647" fy="35.03544745913769" r="5.405324459075928"><stop offset="0.0" stop-color="#51ab2a"/><stop offset="1.0" stop-color="#203e13"/></radialGradient></defs><path shape-rendering="crispEdges" fill="url(#g13df1b65d05_0_51.7)" d="m529.57745 168.58005l41.041992 0l0 41.59581l-41.041992 0l0 -41.59581z" fill-rule="nonzero"/><defs><radialGradient id="g13df1b65d05_0_51.8" gradientUnits="userSpaceOnUse" gradientTransform="matrix(5.405324221326973 0.0 0.0 5.405324221326973 0.0 0.0)" spreadMethod="pad" cx="101.769737146647" cy="42.73078613296157" fx="101.769737146647" fy="42.73078613296157" r="5.405324459075928"><stop offset="0.0" stop-color="#51ab2a"/><stop offset="1.0" stop-color="#203e13"/></radialGradient></defs><path shape-rendering="crispEdges" fill="url(#g13df1b65d05_0_51.8)" d="m529.57745 210.17586l41.041992 0l0 41.595795l-41.041992 0l0 -41.595795z" fill-rule="nonzero"/><defs><radialGradient id="g13df1b65d05_0_51.9" gradientUnits="userSpaceOnUse" gradientTransform="matrix(5.405324221326973 0.0 0.0 5.405324221326973 0.0 0.0)" spreadMethod="pad" cx="101.769737146647" cy="50.426124806785445" fx="101.769737146647" fy="50.426124806785445" r="5.405324459075928"><stop offset="0.0" stop-color="#51ab2a"/><stop offset="1.0" stop-color="#203e13"/></radialGradient></defs><path shape-rendering="crispEdges" fill="url(#g13df1b65d05_0_51.9)" d="m529.57745 251.77165l41.041992 0l0 41.59581l-41.041992 0l0 -41.59581z" fill-rule="nonzero"/><path stroke="#93c47d" stroke-width="4.0" stroke-linecap="butt" d="m529.57745 124.98425l0 45.595795" fill-rule="nonzero"/><path stroke="#93c47d" stroke-width="2.0" stroke-linecap="butt" d="m529.57745 170.58005l0 123.787415" fill-rule="nonzero"/><path stroke="#93c47d" stroke-width="4.0" stroke-linecap="butt" d="m570.61945 124.98425l0 45.595795" fill-rule="nonzero"/><path stroke="#93c47d" stroke-width="2.0" stroke-linecap="butt" d="m570.61945 170.58005l0 123.787415" fill-rule="nonzero"/><path stroke="#93c47d" stroke-width="4.0" stroke-linecap="butt" d="m611.66144 124.98425l0 45.595795" fill-rule="nonzero"/><path stroke="#93c47d" stroke-width="2.0" stroke-linecap="butt" d="m611.66144 170.58005l0 123.787415" fill-rule="nonzero"/><path stroke="#93c47d" stroke-width="4.0" stroke-linecap="butt" d="m652.7034 124.98425l0 45.595795" fill-rule="nonzero"/><path stroke="#93c47d" stroke-width="2.0" stroke-linecap="butt" d="m652.7034 170.58005l0 123.787415" fill-rule="nonzero"/><path stroke="#93c47d" stroke-width="4.0" stroke-linecap="butt" d="m693.7454 124.98425l0 45.595795" fill-rule="nonzero"/><path stroke="#93c47d" stroke-width="2.0" stroke-linecap="butt" d="m693.7454 170.58005l0 123.787415" fill-rule="nonzero"/><path stroke="#93c47d" stroke-width="4.0" stroke-linecap="butt" d="m527.57745 126.98425l168.16797 0" fill-rule="nonzero"/><path stroke="#93c47d" stroke-width="4.0" stroke-linecap="butt" d="m527.57745 168.58005l168.16797 0" fill-rule="nonzero"/><path stroke="#93c47d" stroke-width="2.0" stroke-linecap="butt" d="m528.57745 210.17586l166.16797 0" fill-rule="nonzero"/><path stroke="#93c47d" stroke-width="2.0" stroke-linecap="butt" d="m528.57745 251.77165l166.16797 0" fill-rule="nonzero"/><path stroke="#93c47d" stroke-width="2.0" stroke-linecap="butt" d="m528.57745 293.36746l166.16797 0" fill-rule="nonzero"/><defs><radialGradient id="g13df1b65d05_0_51.10" gradientUnits="userSpaceOnUse" gradientTransform="matrix(5.405324221326973 0.0 0.0 5.405324221326973 0.0 0.0)" spreadMethod="pad" cx="103.25947080712729" cy="61.46326432746638" fx="103.25947080712729" fy="61.46326432746638" r="5.405324459075928"><stop offset="0.0" stop-color="#f48208"/><stop offset="1.0" stop-color="#703e08"/></radialGradient></defs><path shape-rendering="crispEdges" fill="url(#g13df1b65d05_0_51.10)" d="m537.62994 311.43097l41.041992 0l0 41.595795l-41.041992 0l0 -41.595795z" fill-rule="nonzero"/><defs><radialGradient id="g13df1b65d05_0_51.11" gradientUnits="userSpaceOnUse" gradientTransform="matrix(5.405324221326973 0.0 0.0 5.405324221326973 0.0 0.0)" spreadMethod="pad" cx="103.25947080712729" cy="69.15860300129026" fx="103.25947080712729" fy="69.15860300129026" r="5.405324459075928"><stop offset="0.0" stop-color="#f48208"/><stop offset="1.0" stop-color="#703e08"/></radialGradient></defs><path shape-rendering="crispEdges" fill="url(#g13df1b65d05_0_51.11)" d="m537.62994 353.02676l41.041992 0l0 41.595795l-41.041992 0l0 -41.595795z" fill-rule="nonzero"/><defs><radialGradient id="g13df1b65d05_0_51.12" gradientUnits="userSpaceOnUse" gradientTransform="matrix(5.405324221326973 0.0 0.0 5.405324221326973 0.0 0.0)" spreadMethod="pad" cx="103.25947080712729" cy="76.85394167511414" fx="103.25947080712729" fy="76.85394167511414" r="5.405324459075928"><stop offset="0.0" stop-color="#f48208"/><stop offset="1.0" stop-color="#703e08"/></radialGradient></defs><path shape-rendering="crispEdges" fill="url(#g13df1b65d05_0_51.12)" d="m537.62994 394.62256l41.041992 0l0 41.595825l-41.041992 0l0 -41.595825z" fill-rule="nonzero"/><defs><radialGradient id="g13df1b65d05_0_51.13" gradientUnits="userSpaceOnUse" gradientTransform="matrix(5.405324221326973 0.0 0.0 5.405324221326973 0.0 0.0)" spreadMethod="pad" cx="103.25947080712729" cy="84.54928034893801" fx="103.25947080712729" fy="84.54928034893801" r="5.405324459075928"><stop offset="0.0" stop-color="#f48208"/><stop offset="1.0" stop-color="#703e08"/></radialGradient></defs><path shape-rendering="crispEdges" fill="url(#g13df1b65d05_0_51.13)" d="m537.62994 436.21838l41.041992 0l0 41.595795l-41.041992 0l0 -41.595795z" fill-rule="nonzero"/><path stroke="#f6b26b" stroke-width="4.0" stroke-linecap="butt" d="m537.62994 309.43097l0 45.595795" fill-rule="nonzero"/><path stroke="#f6b26b" stroke-width="2.0" stroke-linecap="butt" d="m537.62994 355.02676l0 123.787415" fill-rule="nonzero"/><path stroke="#f6b26b" stroke-width="4.0" stroke-linecap="butt" d="m578.67194 309.43097l0 45.595795" fill-rule="nonzero"/><path stroke="#f6b26b" stroke-width="2.0" stroke-linecap="butt" d="m578.67194 355.02676l0 123.787415" fill-rule="nonzero"/><path stroke="#f6b26b" stroke-width="4.0" stroke-linecap="butt" d="m619.7139 309.43097l0 45.595795" fill-rule="nonzero"/><path stroke="#f6b26b" stroke-width="2.0" stroke-linecap="butt" d="m619.7139 355.02676l0 123.787415" fill-rule="nonzero"/><path stroke="#f6b26b" stroke-width="4.0" stroke-linecap="butt" d="m660.7559 309.43097l0 45.595795" fill-rule="nonzero"/><path stroke="#f6b26b" stroke-width="2.0" stroke-linecap="butt" d="m660.7559 355.02676l0 123.787415" fill-rule="nonzero"/><path stroke="#f6b26b" stroke-width="4.0" stroke-linecap="butt" d="m701.7979 309.43097l0 45.595795" fill-rule="nonzero"/><path stroke="#f6b26b" stroke-width="2.0" stroke-linecap="butt" d="m701.7979 355.02676l0 123.787415" fill-rule="nonzero"/><path stroke="#f6b26b" stroke-width="4.0" stroke-linecap="butt" d="m535.62994 311.43097l168.16797 0" fill-rule="nonzero"/><path stroke="#f6b26b" stroke-width="4.0" stroke-linecap="butt" d="m535.62994 353.02676l168.16797 0" fill-rule="nonzero"/><path stroke="#f6b26b" stroke-width="4.0" stroke-linecap="butt" d="m536.62994 394.62256l166.16797 0" fill-rule="nonzero"/><path stroke="#f6b26b" stroke-width="4.0" stroke-linecap="butt" d="m536.62994 436.21838l166.16797 0" fill-rule="nonzero"/><path stroke="#f6b26b" stroke-width="2.0" stroke-linecap="butt" d="m536.62994 477.81418l166.16797 0" fill-rule="nonzero"/><path fill="#000000" fill-opacity="0.0" d="m399.46457 215.59317c6.2667847 0 -6.789276 -17.236221 12.533569 -34.472443c19.322815 -17.236206 71.024536 -34.472427 142.0491 -34.472427" fill-rule="evenodd"/><path stroke="#000000" stroke-width="2.0" stroke-linejoin="round" stroke-linecap="butt" d="m399.46457 215.59317c6.2667847 0 -6.789276 -17.236221 12.533539 -34.472443c9.661438 -8.618103 27.417572 -17.236206 51.636414 -23.699799c12.109436 -3.231781 25.834564 -5.924942 40.971313 -7.8101654c7.5684204 -0.94259644 15.489746 -1.6832123 23.738464 -2.1881866c4.1243896 -0.25248718 8.330566 -0.44606018 12.6154785 -0.5764923l1.088623 -0.031066895" fill-rule="evenodd"/><path fill="#000000" stroke="#000000" stroke-width="2.0" stroke-linecap="butt" d="m542.0943 150.11816l9.029419 -3.429245l-9.121216 -3.1770477z" fill-rule="evenodd"/><path fill="#000000" fill-opacity="0.0" d="m474.67715 215.07086c0 44.911987 19.84253 74.41849 39.685028 89.824005c19.84253 15.405518 39.68506 16.710052 39.68506 33.420105" fill-rule="evenodd"/><path stroke="#000000" stroke-width="2.0" stroke-linejoin="round" stroke-linecap="butt" d="m474.67715 215.07086c0 44.911987 19.84253 74.41849 39.685028 89.824005c9.921265 7.702759 19.84253 11.88028 27.283508 16.220856c1.8602295 1.0851135 3.5654297 2.180481 5.0768433 3.343628c0.7557373 0.5815735 1.4630127 1.1801147 2.1170044 1.8027954c0.16351318 0.15570068 0.32366943 0.3128662 0.4804077 0.4716797c0.078430176 0.07940674 0.15594482 0.1592102 0.23260498 0.23944092l0.1473999 0.15682983" fill-rule="evenodd"/><path fill="#000000" stroke="#000000" stroke-width="2.0" stroke-linecap="butt" d="m546.6209 328.32684l6.3671265 7.262909l-0.20898438 -9.656403z" fill-rule="evenodd"/><path fill="#000000" d="m106.56937 232.1153l134.6198 0l0 26.475739l-134.6198 0zm0 39.713623l134.6198 0l0 26.475739l-134.6198 0z" fill-rule="evenodd"/><path stroke="#000000" stroke-width="1.0" stroke-linejoin="round" stroke-linecap="butt" d="m106.56937 232.1153l134.6198 0l0 26.475739l-134.6198 0zm0 39.713623l134.6198 0l0 26.475739l-134.6198 0z" fill-rule="evenodd"/></g></svg>