<svg version="1.1" viewBox="0.0 0.0 960.0 540.0" fill="none" stroke="none" stroke-linecap="square" stroke-miterlimit="10" xmlns:xlink="http://www.w3.org/1999/xlink" xmlns="http://www.w3.org/2000/svg"><clipPath id="g13c1d2af25e_0_49.0"><path d="m0 0l960.0 0l0 540.0l-960.0 0l0 -540.0z" clip-rule="nonzero"/></clipPath><g clip-path="url(#g13c1d2af25e_0_49.0)"><path fill="#ffffff" d="m0 0l960.0 0l0 540.0l-960.0 0z" fill-rule="evenodd"/><path fill="#000000" fill-opacity="0.0" d="m533.1413 141.66016l0 0c0 -37.727165 30.583923 -68.31107 68.3111 -68.31107l282.8109 0l0 0c18.117188 0 35.49243 7.1970367 48.303223 20.00785c12.810791 12.810814 20.007874 30.186005 20.007874 48.303223l0 273.2361c0 37.727173 -30.583923 68.311066 -68.3111 68.311066l-282.8109 0c-37.727173 0 -68.3111 -30.583893 -68.3111 -68.311066z" fill-rule="evenodd"/><path stroke="#6366f1" stroke-width="4.0" stroke-linejoin="round" stroke-linecap="butt" d="m533.1413 141.66016l0 0c0 -37.727165 30.583923 -68.31107 68.3111 -68.31107l282.8109 0l0 0c18.117188 0 35.49243 7.1970367 48.303223 20.00785c12.810791 12.810814 20.007874 30.186005 20.007874 48.303223l0 273.2361c0 37.727173 -30.583923 68.311066 -68.3111 68.311066l-282.8109 0c-37.727173 0 -68.3111 -30.583893 -68.3111 -68.311066z" fill-rule="evenodd"/><path fill="#000000" fill-opacity="0.0" d="m430.1036 278.2847l95.811005 0" fill-rule="evenodd"/><path stroke="#595959" stroke-width="8.0" stroke-linejoin="round" stroke-linecap="butt" d="m430.1036 278.2847l47.811005 0" fill-rule="evenodd"/><path fill="#595959" stroke="#595959" stroke-width="8.0" stroke-linecap="butt" d="m477.9146 291.49857l36.30481 -13.213867l-36.30481 -13.213867z" fill-rule="evenodd"/><path fill="#000000" fill-opacity="0.0" d="m590.3963 222.21523l19.716553 0l0 42.01573l-19.716553 0z" fill-rule="evenodd"/><path fill="#000000" fill-opacity="0.0" d="m59.7979 232.6588l24.031498 0l0 42.01573l-24.031498 0z" fill-rule="evenodd"/><path stroke="#4285f4" stroke-width="4.0" stroke-linecap="butt" d="m553.66144 183.49869l0 45.595795" fill-rule="nonzero"/><path stroke="#4285f4" stroke-width="2.0" stroke-linecap="butt" d="m553.66144 229.09448l0 123.787415" fill-rule="nonzero"/><path stroke="#4285f4" stroke-width="4.0" stroke-linecap="butt" d="m594.7034 183.49869l0 45.595795" fill-rule="nonzero"/><path stroke="#4285f4" stroke-width="2.0" stroke-linecap="butt" d="m594.7034 229.09448l0 123.787415" fill-rule="nonzero"/><path stroke="#4285f4" stroke-width="4.0" stroke-linecap="butt" d="m635.7454 183.49869l0 45.595795" fill-rule="nonzero"/><path stroke="#4285f4" stroke-width="2.0" stroke-linecap="butt" d="m635.7454 229.09448l0 123.787415" fill-rule="nonzero"/><path stroke="#4285f4" stroke-width="4.0" stroke-linecap="butt" d="m676.7874 183.49869l0 45.595795" fill-rule="nonzero"/><path stroke="#4285f4" stroke-width="2.0" stroke-linecap="butt" d="m676.7874 229.09448l0 123.787415" fill-rule="nonzero"/><path stroke="#4285f4" stroke-width="4.0" stroke-linecap="butt" d="m717.8294 183.49869l0 45.595795" fill-rule="nonzero"/><path stroke="#4285f4" stroke-width="2.0" stroke-linecap="butt" d="m717.8294 229.09448l0 123.787415" fill-rule="nonzero"/><path stroke="#4285f4" stroke-width="4.0" stroke-linecap="butt" d="m551.66144 185.49869l168.16797 0" fill-rule="nonzero"/><path stroke="#4285f4" stroke-width="4.0" stroke-linecap="butt" d="m551.66144 227.09448l168.16797 0" fill-rule="nonzero"/><path stroke="#4285f4" stroke-width="2.0" stroke-linecap="butt" d="m552.66144 268.69028l166.16797 0" fill-rule="nonzero"/><path stroke="#4285f4" stroke-width="2.0" stroke-linecap="butt" d="m552.66144 310.2861l166.16797 0" fill-rule="nonzero"/><path stroke="#4285f4" stroke-width="2.0" stroke-linecap="butt" d="m552.66144 351.8819l166.16797 0" fill-rule="nonzero"/><defs><radialGradient id="g13c1d2af25e_0_49.1" gradientUnits="userSpaceOnUse" gradientTransform="matrix(5.405324221326973 0.0 0.0 5.405324221326973 0.0 0.0)" spreadMethod="pad" cx="141.7303373170792" cy="25.86008655677929" fx="141.7303373170792" fy="25.86008655677929" r="5.405324459075928"><stop offset="0.0" stop-color="#51ab2a"/><stop offset="1.0" stop-color="#203e13"/></radialGradient></defs><path shape-rendering="crispEdges" fill="url(#g13c1d2af25e_0_49.1)" d="m745.57745 118.98425l41.041992 0l0 41.595795l-41.041992 0l0 -41.595795z" fill-rule="nonzero"/><defs><radialGradient id="g13c1d2af25e_0_49.2" gradientUnits="userSpaceOnUse" gradientTransform="matrix(5.405324221326973 0.0 0.0 5.405324221326973 0.0 0.0)" spreadMethod="pad" cx="141.7303373170792" cy="33.55542523060316" fx="141.7303373170792" fy="33.55542523060316" r="5.405324459075928"><stop offset="0.0" stop-color="#51ab2a"/><stop offset="1.0" stop-color="#203e13"/></radialGradient></defs><path shape-rendering="crispEdges" fill="url(#g13c1d2af25e_0_49.2)" d="m745.57745 160.58005l41.041992 0l0 41.59581l-41.041992 0l0 -41.59581z" fill-rule="nonzero"/><defs><radialGradient id="g13c1d2af25e_0_49.3" gradientUnits="userSpaceOnUse" gradientTransform="matrix(5.405324221326973 0.0 0.0 5.405324221326973 0.0 0.0)" spreadMethod="pad" cx="141.7303373170792" cy="41.25076390442704" fx="141.7303373170792" fy="41.25076390442704" r="5.405324459075928"><stop offset="0.0" stop-color="#51ab2a"/><stop offset="1.0" stop-color="#203e13"/></radialGradient></defs><path shape-rendering="crispEdges" fill="url(#g13c1d2af25e_0_49.3)" d="m745.57745 202.17586l41.041992 0l0 41.595795l-41.041992 0l0 -41.595795z" fill-rule="nonzero"/><defs><radialGradient id="g13c1d2af25e_0_49.4" gradientUnits="userSpaceOnUse" gradientTransform="matrix(5.405324221326973 0.0 0.0 5.405324221326973 0.0 0.0)" spreadMethod="pad" cx="141.7303373170792" cy="48.946102578250915" fx="141.7303373170792" fy="48.946102578250915" r="5.405324459075928"><stop offset="0.0" stop-color="#51ab2a"/><stop offset="1.0" stop-color="#203e13"/></radialGradient></defs><path shape-rendering="crispEdges" fill="url(#g13c1d2af25e_0_49.4)" d="m745.57745 243.77165l41.041992 0l0 41.59581l-41.041992 0l0 -41.59581z" fill-rule="nonzero"/><path stroke="#93c47d" stroke-width="4.0" stroke-linecap="butt" d="m745.57745 116.98425l0 45.595795" fill-rule="nonzero"/><path stroke="#93c47d" stroke-width="2.0" stroke-linecap="butt" d="m745.57745 162.58005l0 123.787415" fill-rule="nonzero"/><path stroke="#93c47d" stroke-width="4.0" stroke-linecap="butt" d="m786.61945 116.98425l0 45.595795" fill-rule="nonzero"/><path stroke="#93c47d" stroke-width="2.0" stroke-linecap="butt" d="m786.61945 162.58005l0 123.787415" fill-rule="nonzero"/><path stroke="#93c47d" stroke-width="4.0" stroke-linecap="butt" d="m827.66144 116.98425l0 45.595795" fill-rule="nonzero"/><path stroke="#93c47d" stroke-width="2.0" stroke-linecap="butt" d="m827.66144 162.58005l0 123.787415" fill-rule="nonzero"/><path stroke="#93c47d" stroke-width="4.0" stroke-linecap="butt" d="m868.7034 116.98425l0 45.595795" fill-rule="nonzero"/><path stroke="#93c47d" stroke-width="2.0" stroke-linecap="butt" d="m868.7034 162.58005l0 123.787415" fill-rule="nonzero"/><path stroke="#93c47d" stroke-width="4.0" stroke-linecap="butt" d="m909.7454 116.98425l0 45.595795" fill-rule="nonzero"/><path stroke="#93c47d" stroke-width="2.0" stroke-linecap="butt" d="m909.7454 162.58005l0 123.787415" fill-rule="nonzero"/><path stroke="#93c47d" stroke-width="4.0" stroke-linecap="butt" d="m743.57745 118.98425l168.16797 0" fill-rule="nonzero"/><path stroke="#93c47d" stroke-width="4.0" stroke-linecap="butt" d="m743.57745 160.58005l168.16797 0" fill-rule="nonzero"/><path stroke="#93c47d" stroke-width="2.0" stroke-linecap="butt" d="m744.57745 202.17586l166.16797 0" fill-rule="nonzero"/><path stroke="#93c47d" stroke-width="2.0" stroke-linecap="butt" d="m744.57745 243.77165l166.16797 0" fill-rule="nonzero"/><path stroke="#93c47d" stroke-width="2.0" stroke-linecap="butt" d="m744.57745 285.36746l166.16797 0" fill-rule="nonzero"/><path stroke="#f6b26b" stroke-width="4.0" stroke-linecap="butt" d="m753.62994 301.43097l0 45.595795" fill-rule="nonzero"/><path stroke="#f6b26b" stroke-width="2.0" stroke-linecap="butt" d="m753.62994 347.02676l0 123.787415" fill-rule="nonzero"/><path stroke="#f6b26b" stroke-width="4.0" stroke-linecap="butt" d="m794.67194 301.43097l0 45.595795" fill-rule="nonzero"/><path stroke="#f6b26b" stroke-width="2.0" stroke-linecap="butt" d="m794.67194 347.02676l0 123.787415" fill-rule="nonzero"/><path stroke="#f6b26b" stroke-width="4.0" stroke-linecap="butt" d="m835.7139 301.43097l0 45.595795" fill-rule="nonzero"/><path stroke="#f6b26b" stroke-width="2.0" stroke-linecap="butt" d="m835.7139 347.02676l0 123.787415" fill-rule="nonzero"/><path stroke="#f6b26b" stroke-width="4.0" stroke-linecap="butt" d="m876.7559 301.43097l0 45.595795" fill-rule="nonzero"/><path stroke="#f6b26b" stroke-width="2.0" stroke-linecap="butt" d="m876.7559 347.02676l0 123.787415" fill-rule="nonzero"/><path stroke="#f6b26b" stroke-width="4.0" stroke-linecap="butt" d="m917.7979 301.43097l0 45.595795" fill-rule="nonzero"/><path stroke="#f6b26b" stroke-width="2.0" stroke-linecap="butt" d="m917.7979 347.02676l0 123.787415" fill-rule="nonzero"/><path stroke="#f6b26b" stroke-width="4.0" stroke-linecap="butt" d="m751.62994 303.43097l168.16797 0" fill-rule="nonzero"/><path stroke="#f6b26b" stroke-width="4.0" stroke-linecap="butt" d="m751.62994 345.02676l168.16797 0" fill-rule="nonzero"/><path stroke="#f6b26b" stroke-width="2.0" stroke-linecap="butt" d="m752.62994 386.62256l166.16797 0" fill-rule="nonzero"/><path stroke="#f6b26b" stroke-width="2.0" stroke-linecap="butt" d="m752.62994 428.21838l166.16797 0" fill-rule="nonzero"/><path stroke="#f6b26b" stroke-width="2.0" stroke-linecap="butt" d="m752.62994 469.81418l166.16797 0" fill-rule="nonzero"/><path fill="#000000" fill-opacity="0.0" d="m5.1413007 141.66016l0 0c0 -37.727165 30.583912 -68.31107 68.31107 -68.31107l282.8109 0l0 0c18.117218 0 35.4924 7.1970367 48.303223 20.00785c12.810791 12.810814 20.007843 30.186005 20.007843 48.303223l0 273.2361c0 37.727173 -30.583923 68.311066 -68.311066 68.311066l-282.8109 0c-37.727165 0 -68.31107 -30.583893 -68.31107 -68.311066z" fill-rule="evenodd"/><path stroke="#6366f1" stroke-width="4.0" stroke-linejoin="round" stroke-linecap="butt" d="m5.1413007 141.66016l0 0c0 -37.727165 30.583912 -68.31107 68.31107 -68.31107l282.8109 0l0 0c18.117218 0 35.4924 7.1970367 48.303223 20.00785c12.810791 12.810814 20.007843 30.186005 20.007843 48.303223l0 273.2361c0 37.727173 -30.583923 68.311066 -68.311066 68.311066l-282.8109 0c-37.727165 0 -68.31107 -30.583893 -68.31107 -68.311066z" fill-rule="evenodd"/><path fill="#000000" fill-opacity="0.0" d="m62.396324 222.21523l19.716537 0l0 42.01573l-19.716537 0z" fill-rule="evenodd"/><path stroke="#4285f4" stroke-width="4.0" stroke-linecap="butt" d="m25.661417 183.49869l0 45.595795" fill-rule="nonzero"/><path stroke="#4285f4" stroke-width="2.0" stroke-linecap="butt" d="m25.661417 229.09448l0 123.787415" fill-rule="nonzero"/><path stroke="#4285f4" stroke-width="4.0" stroke-linecap="butt" d="m66.703415 183.49869l0 45.595795" fill-rule="nonzero"/><path stroke="#4285f4" stroke-width="2.0" stroke-linecap="butt" d="m66.703415 229.09448l0 123.787415" fill-rule="nonzero"/><path stroke="#4285f4" stroke-width="4.0" stroke-linecap="butt" d="m107.74541 183.49869l0 45.595795" fill-rule="nonzero"/><path stroke="#4285f4" stroke-width="2.0" stroke-linecap="butt" d="m107.74541 229.09448l0 123.787415" fill-rule="nonzero"/><path stroke="#4285f4" stroke-width="4.0" stroke-linecap="butt" d="m148.7874 183.49869l0 45.595795" fill-rule="nonzero"/><path stroke="#4285f4" stroke-width="2.0" stroke-linecap="butt" d="m148.7874 229.09448l0 123.787415" fill-rule="nonzero"/><path stroke="#4285f4" stroke-width="4.0" stroke-linecap="butt" d="m189.82939 183.49869l0 45.595795" fill-rule="nonzero"/><path stroke="#4285f4" stroke-width="2.0" stroke-linecap="butt" d="m189.82939 229.09448l0 123.787415" fill-rule="nonzero"/><path stroke="#4285f4" stroke-width="4.0" stroke-linecap="butt" d="m23.661417 185.49869l168.16797 0" fill-rule="nonzero"/><path stroke="#4285f4" stroke-width="4.0" stroke-linecap="butt" d="m23.661417 227.09448l168.16797 0" fill-rule="nonzero"/><path stroke="#4285f4" stroke-width="2.0" stroke-linecap="butt" d="m24.661417 268.69028l166.16797 0" fill-rule="nonzero"/><path stroke="#4285f4" stroke-width="2.0" stroke-linecap="butt" d="m24.661417 310.2861l166.16797 0" fill-rule="nonzero"/><path stroke="#4285f4" stroke-width="2.0" stroke-linecap="butt" d="m24.661417 351.8819l166.16797 0" fill-rule="nonzero"/><path stroke="#93c47d" stroke-width="4.0" stroke-linecap="butt" d="m217.57742 116.98425l0 45.595795" fill-rule="nonzero"/><path stroke="#93c47d" stroke-width="2.0" stroke-linecap="butt" d="m217.57742 162.58005l0 123.787415" fill-rule="nonzero"/><path stroke="#93c47d" stroke-width="4.0" stroke-linecap="butt" d="m258.61942 116.98425l0 45.595795" fill-rule="nonzero"/><path stroke="#93c47d" stroke-width="2.0" stroke-linecap="butt" d="m258.61942 162.58005l0 123.787415" fill-rule="nonzero"/><path stroke="#93c47d" stroke-width="4.0" stroke-linecap="butt" d="m299.6614 116.98425l0 45.595795" fill-rule="nonzero"/><path stroke="#93c47d" stroke-width="2.0" stroke-linecap="butt" d="m299.6614 162.58005l0 123.787415" fill-rule="nonzero"/><path stroke="#93c47d" stroke-width="4.0" stroke-linecap="butt" d="m340.7034 116.98425l0 45.595795" fill-rule="nonzero"/><path stroke="#93c47d" stroke-width="2.0" stroke-linecap="butt" d="m340.7034 162.58005l0 123.787415" fill-rule="nonzero"/><path stroke="#93c47d" stroke-width="4.0" stroke-linecap="butt" d="m381.7454 116.98425l0 45.595795" fill-rule="nonzero"/><path stroke="#93c47d" stroke-width="2.0" stroke-linecap="butt" d="m381.7454 162.58005l0 123.787415" fill-rule="nonzero"/><path stroke="#93c47d" stroke-width="4.0" stroke-linecap="butt" d="m215.57742 118.98425l168.16797 0" fill-rule="nonzero"/><path stroke="#93c47d" stroke-width="4.0" stroke-linecap="butt" d="m215.57742 160.58005l168.16797 0" fill-rule="nonzero"/><path stroke="#93c47d" stroke-width="2.0" stroke-linecap="butt" d="m216.57742 202.17586l166.16797 0" fill-rule="nonzero"/><path stroke="#93c47d" stroke-width="2.0" stroke-linecap="butt" d="m216.57742 243.77165l166.16797 0" fill-rule="nonzero"/><path stroke="#93c47d" stroke-width="2.0" stroke-linecap="butt" d="m216.57742 285.36746l166.16797 0" fill-rule="nonzero"/><path stroke="#f6b26b" stroke-width="4.0" stroke-linecap="butt" d="m225.62993 301.43097l0 45.595795" fill-rule="nonzero"/><path stroke="#f6b26b" stroke-width="2.0" stroke-linecap="butt" d="m225.62993 347.02676l0 123.787415" fill-rule="nonzero"/><path stroke="#f6b26b" stroke-width="4.0" stroke-linecap="butt" d="m266.6719 301.43097l0 45.595795" fill-rule="nonzero"/><path stroke="#f6b26b" stroke-width="2.0" stroke-linecap="butt" d="m266.6719 347.02676l0 123.787415" fill-rule="nonzero"/><path stroke="#f6b26b" stroke-width="4.0" stroke-linecap="butt" d="m307.7139 301.43097l0 45.595795" fill-rule="nonzero"/><path stroke="#f6b26b" stroke-width="2.0" stroke-linecap="butt" d="m307.7139 347.02676l0 123.787415" fill-rule="nonzero"/><path stroke="#f6b26b" stroke-width="4.0" stroke-linecap="butt" d="m348.75592 301.43097l0 45.595795" fill-rule="nonzero"/><path stroke="#f6b26b" stroke-width="2.0" stroke-linecap="butt" d="m348.75592 347.02676l0 123.787415" fill-rule="nonzero"/><path stroke="#f6b26b" stroke-width="4.0" stroke-linecap="butt" d="m389.7979 301.43097l0 45.595795" fill-rule="nonzero"/><path stroke="#f6b26b" stroke-width="2.0" stroke-linecap="butt" d="m389.7979 347.02676l0 123.787415" fill-rule="nonzero"/><path stroke="#f6b26b" stroke-width="4.0" stroke-linecap="butt" d="m223.62993 303.43097l168.16798 0" fill-rule="nonzero"/><path stroke="#f6b26b" stroke-width="4.0" stroke-linecap="butt" d="m223.62993 345.02676l168.16798 0" fill-rule="nonzero"/><path stroke="#f6b26b" stroke-width="2.0" stroke-linecap="butt" d="m224.62993 386.62256l166.16798 0" fill-rule="nonzero"/><path stroke="#f6b26b" stroke-width="2.0" stroke-linecap="butt" d="m224.62993 428.21838l166.16798 0" fill-rule="nonzero"/><path stroke="#f6b26b" stroke-width="2.0" stroke-linecap="butt" d="m224.62993 469.81418l166.16798 0" fill-rule="nonzero"/></g></svg>