<?xml version="1.0" encoding="UTF-8" standalone="no"?>
<!DOCTYPE svg PUBLIC "-//W3C//DTD SVG 1.1//EN"
 "http://www.w3.org/Graphics/SVG/1.1/DTD/svg11.dtd">
<!-- Generated by graphviz version 2.40.1 (20161225.0304)
 -->
<!-- Title: %0 Pages: 1 -->
<svg width="152pt" height="174pt"
 viewBox="0.00 0.00 152.00 174.00" xmlns="http://www.w3.org/2000/svg" xmlns:xlink="http://www.w3.org/1999/xlink">
<g id="graph0" class="graph" transform="scale(1 1) rotate(0) translate(4 170)">
<title>%0</title>
<g id="a_graph0"><a xlink:title="Data Model">
<polygon fill="#ffffff" stroke="transparent" points="-4,4 -4,-170 148,-170 148,4 -4,4"/>
</a>
</g>
<!-- airlines -->
<g id="node1" class="node">
<title>airlines</title>
<polygon fill="#ed7d31" stroke="transparent" points="95,-141 95,-161 140,-161 140,-141 95,-141"/>
<text text-anchor="start" x="96.8969" y="-146.4" font-family="Times,serif" font-size="14.00" fill="#ffffff">airlines</text>
<polygon fill="#f9dbd2" stroke="transparent" points="95,-121 95,-141 140,-141 140,-121 95,-121"/>
<text text-anchor="start" x="97" y="-127.4" font-family="Times,serif" text-decoration="underline" font-size="14.00" fill="#444444">carrier</text>
<polygon fill="none" stroke="#ae5a21" points="93.5,-120 93.5,-162 140.5,-162 140.5,-120 93.5,-120"/>
</g>
<!-- airports -->
<g id="node2" class="node">
<title>airports</title>
<polygon fill="#ed7d31" stroke="transparent" points="94,-21 94,-41 140,-41 140,-21 94,-21"/>
<text text-anchor="start" x="95.6192" y="-26.4" font-family="Times,serif" font-size="14.00" fill="#ffffff">airports</text>
<polygon fill="#f9dbd2" stroke="transparent" points="94,-1 94,-21 140,-21 140,-1 94,-1"/>
<text text-anchor="start" x="96" y="-7.4" font-family="Times,serif" text-decoration="underline" font-size="14.00" fill="#444444">faa</text>
<polygon fill="none" stroke="#ae5a21" points="93,0 93,-42 141,-42 141,0 93,0"/>
</g>
<!-- flights -->
<g id="node3" class="node">
<title>flights</title>
<polygon fill="#5b9bd5" stroke="transparent" points="4,-91 4,-111 50,-111 50,-91 4,-91"/>
<text text-anchor="start" x="9.1115" y="-96.4" font-family="Times,serif" font-size="14.00" fill="#ffffff">flights</text>
<polygon fill="#d6e1f1" stroke="transparent" points="4,-71 4,-91 50,-91 50,-71 4,-71"/>
<text text-anchor="start" x="6" y="-76.4" font-family="Times,serif" font-size="14.00" fill="#444444">carrier</text>
<polygon fill="#d6e1f1" stroke="transparent" points="4,-51 4,-71 50,-71 50,-51 4,-51"/>
<text text-anchor="start" x="5.6115" y="-56.4" font-family="Times,serif" font-size="14.00" fill="#444444">tailnum</text>
<polygon fill="#d6e1f1" stroke="transparent" points="4,-31 4,-51 50,-51 50,-31 4,-31"/>
<text text-anchor="start" x="6" y="-36.4" font-family="Times,serif" font-size="14.00" fill="#444444">origin</text>
<polygon fill="#d6e1f1" stroke="transparent" points="4,-11 4,-31 50,-31 50,-11 4,-11"/>
<text text-anchor="start" x="6" y="-16.4" font-family="Times,serif" font-size="14.00" fill="#444444">dest</text>
<polygon fill="none" stroke="#41719c" points="3,-10 3,-112 51,-112 51,-10 3,-10"/>
</g>
<!-- flights&#45;&gt;airlines -->
<g id="edge1" class="edge">
<title>flights:carrier&#45;&gt;airlines:carrier</title>
<path fill="none" stroke="#555555" d="M50,-81C75.9263,-81 68.2444,-118.6007 85.2435,-128.5884"/>
<polygon fill="#555555" stroke="#555555" points="84.4523,-131.9981 95,-131 86.132,-125.2026 84.4523,-131.9981"/>
</g>
<!-- flights&#45;&gt;airports -->
<g id="edge2" class="edge">
<title>flights:origin&#45;&gt;airports:faa</title>
<path fill="none" stroke="#555555" d="M50,-41C69.6005,-41 70.6808,-20.4263 83.915,-13.354"/>
<polygon fill="#555555" stroke="#555555" points="85.0574,-16.6816 94,-11 83.4662,-9.8648 85.0574,-16.6816"/>
</g>
<!-- flights&#45;&gt;airports -->
<g id="edge3" class="edge">
<title>flights:dest&#45;&gt;airports:faa</title>
<path fill="none" stroke="#555555" d="M50,-21C66.1374,-21 71.8091,-14.5248 83.8583,-11.9954"/>
<polygon fill="#555555" stroke="#555555" points="84.3897,-15.4601 94,-11 83.7059,-8.4936 84.3897,-15.4601"/>
</g>
<!-- planes -->
<g id="node4" class="node">
<title>planes</title>
<polygon fill="#ed7d31" stroke="transparent" points="94,-81 94,-101 140,-101 140,-81 94,-81"/>
<text text-anchor="start" x="99.1178" y="-86.4" font-family="Times,serif" font-size="14.00" fill="#ffffff">planes</text>
<polygon fill="#f9dbd2" stroke="transparent" points="94,-61 94,-81 140,-81 140,-61 94,-61"/>
<text text-anchor="start" x="95.6115" y="-67.4" font-family="Times,serif" text-decoration="underline" font-size="14.00" fill="#444444">tailnum</text>
<polygon fill="none" stroke="#ae5a21" points="93,-60 93,-102 141,-102 141,-60 93,-60"/>
</g>
<!-- flights&#45;&gt;planes -->
<g id="edge4" class="edge">
<title>flights:tailnum&#45;&gt;planes:tailnum</title>
<path fill="none" stroke="#555555" d="M50,-61C66.1374,-61 71.8091,-67.4752 83.8583,-70.0046"/>
<polygon fill="#555555" stroke="#555555" points="83.7059,-73.5064 94,-71 84.3897,-66.5399 83.7059,-73.5064"/>
</g>
<!-- weather -->
<g id="node5" class="node">
<title>weather</title>
<polygon fill="#70ad47" stroke="transparent" points="3,-138 3,-158 51,-158 51,-138 3,-138"/>
<text text-anchor="start" x="4.8492" y="-143.4" font-family="Times,serif" font-size="14.00" fill="#ffffff">weather</text>
<polygon fill="none" stroke="#507e32" points="2,-137 2,-159 52,-159 52,-137 2,-137"/>
</g>
</g>
</svg>

