<?xml version="1.0" encoding="UTF-8" standalone="no"?>
<!DOCTYPE svg PUBLIC "-//W3C//DTD SVG 1.1//EN" "http://www.w3.org/Graphics/SVG/1.1/DTD/svg11.dtd">
<!-- Generated by graphviz version 2.40.1 (20161225.0304)
 -->
<!-- Title: %0 Pages: 1 -->
<svg xmlns="http://www.w3.org/2000/svg" xmlns:xlink="http://www.w3.org/1999/xlink" width="353pt" height="350pt" viewBox="0.00 0.00 353.00 350.00">
  <g id="graph0" class="graph" transform="scale(1 1) rotate(0) translate(4 346)">
    <title>%0</title>
    <g id="a_graph0">
      <a xlink:title="Data Model">
        <polygon fill="#ffffff" stroke="transparent" points="-4,4 -4,-346 349,-346 349,4 -4,4"/>
      </a>
    </g>
    <!-- accounts -->
    <g id="node1" class="node">
      <title>accounts</title>
      <polygon fill="#efebdd" stroke="transparent" points="194,-181 194,-201 254,-201 254,-181 194,-181"/>
      <text text-anchor="start" x="199.5105" y="-186.4" font-family="Times,serif" font-size="14.00" fill="#000000">accounts</text>
      <polygon fill="#ffffff" stroke="transparent" points="194,-161 194,-181 254,-181 254,-161 194,-161"/>
      <text text-anchor="start" x="196" y="-167.4" font-family="Times,serif" text-decoration="underline" font-size="14.00" fill="#444444">id</text>
      <polygon fill="#ffffff" stroke="transparent" points="194,-141 194,-161 254,-161 254,-141 194,-141"/>
      <text text-anchor="start" x="195.6136" y="-146.4" font-family="Times,serif" font-size="14.00" fill="#444444">district_id</text>
      <polygon fill="none" stroke="#555555" points="193,-140 193,-202 255,-202 255,-140 193,-140"/>
    </g>
    <!-- districts -->
    <g id="node5" class="node">
      <title>districts</title>
      <polygon fill="#efebdd" stroke="transparent" points="294,-206 294,-226 342,-226 342,-206 294,-206"/>
      <text text-anchor="start" x="295.8366" y="-211.4" font-family="Times,serif" font-size="14.00" fill="#000000">districts</text>
      <polygon fill="#ffffff" stroke="transparent" points="294,-186 294,-206 342,-206 342,-186 294,-186"/>
      <text text-anchor="start" x="296" y="-192.4" font-family="Times,serif" text-decoration="underline" font-size="14.00" fill="#444444">id</text>
      <polygon fill="none" stroke="#555555" points="293,-185 293,-227 343,-227 343,-185 293,-185"/>
    </g>
    <!-- accounts&#45;&gt;districts -->
    <g id="edge7" class="edge">
      <title>accounts:district_id-&gt;districts:id</title>
      <path fill="none" stroke="#555555" d="M254,-151C276.578,-151 270.482,-183.0361 284.0994,-193.0474"/>
      <polygon fill="#555555" stroke="#555555" points="283.4168,-196.4961 294,-196 285.4173,-189.7881 283.4168,-196.4961"/>
    </g>
    <!-- cards -->
    <g id="node2" class="node">
      <title>cards</title>
      <polygon fill="#efebdd" stroke="transparent" points="5,-321 5,-341 50,-341 50,-321 5,-321"/>
      <text text-anchor="start" x="12.7328" y="-326.4" font-family="Times,serif" font-size="14.00" fill="#000000">cards</text>
      <polygon fill="#ffffff" stroke="transparent" points="5,-301 5,-321 50,-321 50,-301 5,-301"/>
      <text text-anchor="start" x="7" y="-307.4" font-family="Times,serif" text-decoration="underline" font-size="14.00" fill="#444444">id</text>
      <polygon fill="#ffffff" stroke="transparent" points="5,-281 5,-301 50,-301 50,-281 5,-281"/>
      <text text-anchor="start" x="6.8871" y="-286.4" font-family="Times,serif" font-size="14.00" fill="#444444">disp_id</text>
      <polygon fill="none" stroke="#555555" points="3.5,-280 3.5,-342 50.5,-342 50.5,-280 3.5,-280"/>
    </g>
    <!-- disps -->
    <g id="node4" class="node">
      <title>disps</title>
      <polygon fill="#efebdd" stroke="transparent" points="91.5,-301 91.5,-321 156.5,-321 156.5,-301 91.5,-301"/>
      <text text-anchor="start" x="109.6101" y="-306.4" font-family="Times,serif" font-size="14.00" fill="#000000">disps</text>
      <polygon fill="#ffffff" stroke="transparent" points="91.5,-281 91.5,-301 156.5,-301 156.5,-281 91.5,-281"/>
      <text text-anchor="start" x="93.5" y="-287.4" font-family="Times,serif" text-decoration="underline" font-size="14.00" fill="#444444">id</text>
      <polygon fill="#ffffff" stroke="transparent" points="91.5,-261 91.5,-281 156.5,-281 156.5,-261 91.5,-261"/>
      <text text-anchor="start" x="93.5" y="-266.4" font-family="Times,serif" font-size="14.00" fill="#444444">client_id</text>
      <polygon fill="#ffffff" stroke="transparent" points="91.5,-241 91.5,-261 156.5,-261 156.5,-241 91.5,-241"/>
      <text text-anchor="start" x="93.2875" y="-246.4" font-family="Times,serif" font-size="14.00" fill="#444444">account_id</text>
      <polygon fill="none" stroke="#555555" points="90,-240 90,-322 157,-322 157,-240 90,-240"/>
    </g>
    <!-- cards&#45;&gt;disps -->
    <g id="edge6" class="edge">
      <title>cards:disp_id-&gt;disps:id</title>
      <path fill="none" stroke="#555555" d="M50,-291C64.5538,-291 70.4947,-291 81.415,-291"/>
      <polygon fill="#555555" stroke="#555555" points="81.5,-294.5001 91.5,-291 81.5,-287.5001 81.5,-294.5001"/>
    </g>
    <!-- clients -->
    <g id="node3" class="node">
      <title>clients</title>
      <polygon fill="#efebdd" stroke="transparent" points="194,-271 194,-291 254,-291 254,-271 194,-271"/>
      <text text-anchor="start" x="205.7272" y="-276.4" font-family="Times,serif" font-size="14.00" fill="#000000">clients</text>
      <polygon fill="#ffffff" stroke="transparent" points="194,-251 194,-271 254,-271 254,-251 194,-251"/>
      <text text-anchor="start" x="196" y="-257.4" font-family="Times,serif" text-decoration="underline" font-size="14.00" fill="#444444">id</text>
      <polygon fill="#ffffff" stroke="transparent" points="194,-231 194,-251 254,-251 254,-231 194,-231"/>
      <text text-anchor="start" x="195.6136" y="-236.4" font-family="Times,serif" font-size="14.00" fill="#444444">district_id</text>
      <polygon fill="none" stroke="#555555" points="193,-230 193,-292 255,-292 255,-230 193,-230"/>
    </g>
    <!-- clients&#45;&gt;districts -->
    <g id="edge8" class="edge">
      <title>clients:district_id-&gt;districts:id</title>
      <path fill="none" stroke="#555555" d="M254,-241C276.578,-241 270.482,-208.9639 284.0994,-198.9526"/>
      <polygon fill="#555555" stroke="#555555" points="285.4173,-202.2119 294,-196 283.4168,-195.5039 285.4173,-202.2119"/>
    </g>
    <!-- disps&#45;&gt;accounts -->
    <g id="edge1" class="edge">
      <title>disps:account_id-&gt;accounts:id</title>
      <path fill="none" stroke="#555555" d="M156.5,-251C191.6264,-251 162.4948,-186.9851 184.0668,-173.482"/>
      <polygon fill="#555555" stroke="#555555" points="185.1467,-176.8198 194,-171 183.4498,-170.0286 185.1467,-176.8198"/>
    </g>
    <!-- disps&#45;&gt;clients -->
    <g id="edge5" class="edge">
      <title>disps:client_id-&gt;clients:id</title>
      <path fill="none" stroke="#555555" d="M156.5,-271C169.7063,-271 174.5612,-265.1382 183.8528,-262.3905"/>
      <polygon fill="#555555" stroke="#555555" points="184.5678,-265.8253 194,-261 183.6174,-258.8901 184.5678,-265.8253"/>
    </g>
    <!-- loans -->
    <g id="node6" class="node">
      <title>loans</title>
      <polygon fill="#efebdd" stroke="transparent" points="91.5,-201 91.5,-221 156.5,-221 156.5,-201 91.5,-201"/>
      <text text-anchor="start" x="109.2251" y="-206.4" font-family="Times,serif" font-size="14.00" fill="#000000">loans</text>
      <polygon fill="#ffffff" stroke="transparent" points="91.5,-181 91.5,-201 156.5,-201 156.5,-181 91.5,-181"/>
      <text text-anchor="start" x="93.5" y="-187.4" font-family="Times,serif" text-decoration="underline" font-size="14.00" fill="#444444">id</text>
      <polygon fill="#ffffff" stroke="transparent" points="91.5,-161 91.5,-181 156.5,-181 156.5,-161 91.5,-161"/>
      <text text-anchor="start" x="93.2875" y="-166.4" font-family="Times,serif" font-size="14.00" fill="#444444">account_id</text>
      <polygon fill="none" stroke="#555555" points="90,-160 90,-222 157,-222 157,-160 90,-160"/>
    </g>
    <!-- loans&#45;&gt;accounts -->
    <g id="edge2" class="edge">
      <title>loans:account_id-&gt;accounts:id</title>
      <path fill="none" stroke="#555555" d="M156.5,-171C169.1302,-171 174.5819,-171 183.735,-171"/>
      <polygon fill="#555555" stroke="#555555" points="184,-174.5001 194,-171 184,-167.5001 184,-174.5001"/>
    </g>
    <!-- orders -->
    <g id="node7" class="node">
      <title>orders</title>
      <polygon fill="#efebdd" stroke="transparent" points="91.5,-121 91.5,-141 156.5,-141 156.5,-121 91.5,-121"/>
      <text text-anchor="start" x="106.5098" y="-126.4" font-family="Times,serif" font-size="14.00" fill="#000000">orders</text>
      <polygon fill="#ffffff" stroke="transparent" points="91.5,-101 91.5,-121 156.5,-121 156.5,-101 91.5,-101"/>
      <text text-anchor="start" x="93.5" y="-107.4" font-family="Times,serif" text-decoration="underline" font-size="14.00" fill="#444444">id</text>
      <polygon fill="#ffffff" stroke="transparent" points="91.5,-81 91.5,-101 156.5,-101 156.5,-81 91.5,-81"/>
      <text text-anchor="start" x="93.2875" y="-86.4" font-family="Times,serif" font-size="14.00" fill="#444444">account_id</text>
      <polygon fill="none" stroke="#555555" points="90,-80 90,-142 157,-142 157,-80 90,-80"/>
    </g>
    <!-- orders&#45;&gt;accounts -->
    <g id="edge3" class="edge">
      <title>orders:account_id-&gt;accounts:id</title>
      <path fill="none" stroke="#555555" d="M156.5,-91C191.6264,-91 162.4948,-155.0149 184.0668,-168.518"/>
      <polygon fill="#555555" stroke="#555555" points="183.4498,-171.9714 194,-171 185.1467,-165.1802 183.4498,-171.9714"/>
    </g>
    <!-- tkeys -->
    <g id="node8" class="node">
      <title>tkeys</title>
      <polygon fill="#efebdd" stroke="transparent" points="246,-77 246,-97 279,-97 279,-77 246,-77"/>
      <text text-anchor="start" x="247.7251" y="-82.4" font-family="Times,serif" font-size="14.00" fill="#000000">tkeys</text>
      <polygon fill="#ffffff" stroke="transparent" points="246,-57 246,-77 279,-77 279,-57 246,-57"/>
      <text text-anchor="start" x="248" y="-63.4" font-family="Times,serif" text-decoration="underline" font-size="14.00" fill="#444444">id</text>
      <polygon fill="none" stroke="#555555" points="244.5,-56 244.5,-98 279.5,-98 279.5,-56 244.5,-56"/>
    </g>
    <!-- trans -->
    <g id="node9" class="node">
      <title>trans</title>
      <polygon fill="#efebdd" stroke="transparent" points="91.5,-41 91.5,-61 156.5,-61 156.5,-41 91.5,-41"/>
      <text text-anchor="start" x="110.3948" y="-46.4" font-family="Times,serif" font-size="14.00" fill="#000000">trans</text>
      <polygon fill="#ffffff" stroke="transparent" points="91.5,-21 91.5,-41 156.5,-41 156.5,-21 91.5,-21"/>
      <text text-anchor="start" x="93.5" y="-27.4" font-family="Times,serif" text-decoration="underline" font-size="14.00" fill="#444444">id</text>
      <polygon fill="#ffffff" stroke="transparent" points="91.5,-1 91.5,-21 156.5,-21 156.5,-1 91.5,-1"/>
      <text text-anchor="start" x="93.2875" y="-6.4" font-family="Times,serif" font-size="14.00" fill="#444444">account_id</text>
      <polygon fill="none" stroke="#555555" points="90,0 90,-62 157,-62 157,0 90,0"/>
    </g>
    <!-- trans&#45;&gt;accounts -->
    <g id="edge4" class="edge">
      <title>trans:account_id-&gt;accounts:id</title>
      <path fill="none" stroke="#555555" d="M156.5,-11C225.6865,-11 131.9082,-154.5699 183.907,-169.7121"/>
      <polygon fill="#555555" stroke="#555555" points="183.6374,-173.206 194,-171 184.5235,-166.2623 183.6374,-173.206"/>
    </g>
  </g>
</svg>
