<?xml version="1.0" encoding="UTF-8" standalone="no"?>
<!DOCTYPE svg PUBLIC "-//W3C//DTD SVG 1.1//EN" "http://www.w3.org/Graphics/SVG/1.1/DTD/svg11.dtd">
<!-- Generated by graphviz version 2.40.1 (20161225.0304)
 -->
<!-- Title: %0 Pages: 1 -->
<svg xmlns="http://www.w3.org/2000/svg" xmlns:xlink="http://www.w3.org/1999/xlink" width="278pt" height="116pt" viewBox="0.00 0.00 278.00 116.00">
  <g id="graph0" class="graph" transform="scale(1 1) rotate(0) translate(4 112)">
    <title>%0</title>
    <g id="a_graph0">
      <a xlink:title="Data Model">
        <polygon fill="#ffffff" stroke="transparent" points="-4,4 -4,-112 274,-112 274,4 -4,4"/>
      </a>
    </g>
    <!-- airlines -->
    <g id="airlines" class="node">
      <title>airlines</title>
      <polygon fill="#ed7d31" stroke="transparent" points="5,-8 5,-28 50,-28 50,-8 5,-8"/>
      <text text-anchor="start" x="6.8969" y="-13.4" font-family="Times,serif" font-size="14.00" fill="#ffffff">airlines</text>
      <polygon fill="none" stroke="#9e5320" stroke-opacity="0.666667" points="3.5,-7 3.5,-29 50.5,-29 50.5,-7 3.5,-7"/>
    </g>
    <!-- airports -->
    <g id="airports" class="node">
      <title>airports</title>
      <polygon fill="#ed7d31" stroke="transparent" points="76,-8 76,-28 122,-28 122,-8 76,-8"/>
      <text text-anchor="start" x="77.6192" y="-13.4" font-family="Times,serif" font-size="14.00" fill="#ffffff">airports</text>
      <polygon fill="none" stroke="#9e5320" stroke-opacity="0.666667" points="75,-7 75,-29 123,-29 123,-7 75,-7"/>
    </g>
    <!-- flights -->
    <g id="flights" class="node">
      <title>flights</title>
      <polygon fill="#5b9bd5" stroke="transparent" points="116,-80 116,-100 155,-100 155,-80 116,-80"/>
      <text text-anchor="start" x="117.6115" y="-85.4" font-family="Times,serif" font-size="14.00" fill="#ffffff">flights</text>
      <polygon fill="none" stroke="#3c678e" stroke-opacity="0.666667" points="114.5,-79 114.5,-101 155.5,-101 155.5,-79 114.5,-79"/>
    </g>
    <!-- flights&#45;&gt;airlines -->
    <g id="flights_1" class="edge">
      <title>flights:carrier-&gt;airlines:carrier</title>
      <path fill="none" stroke="#555555" d="M107.747,-71.8314C94.0611,-62.7074 77.3085,-51.539 62.6173,-41.7449"/>
      <polygon fill="#555555" stroke="#555555" points="64.5062,-38.7977 54.2442,-36.1628 60.6233,-44.6221 64.5062,-38.7977"/>
    </g>
    <!-- flights&#45;&gt;airports -->
    <g id="flights_2" class="edge">
      <title>flights:origin-&gt;airports:faa</title>
      <path fill="none" stroke="#555555" d="M125.9157,-71.8314C121.9385,-63.8771 117.1845,-54.369 112.7861,-45.5723"/>
      <polygon fill="#555555" stroke="#555555" points="115.8093,-43.7923 108.2066,-36.4133 109.5483,-46.9228 115.8093,-43.7923"/>
    </g>
    <!-- planes -->
    <g id="planes" class="node">
      <title>planes</title>
      <polygon fill="#ed7d31" stroke="transparent" points="152,-8 152,-28 191,-28 191,-8 152,-8"/>
      <text text-anchor="start" x="153.6178" y="-13.4" font-family="Times,serif" font-size="14.00" fill="#ffffff">planes</text>
      <polygon fill="none" stroke="#9e5320" stroke-opacity="0.666667" points="150.5,-7 150.5,-29 191.5,-29 191.5,-7 150.5,-7"/>
    </g>
    <!-- flights&#45;&gt;planes -->
    <g id="flights_3" class="edge">
      <title>flights:tailnum-&gt;planes:tailnum</title>
      <path fill="none" stroke="#555555" d="M144.0843,-71.8314C148.0615,-63.8771 152.8155,-54.369 157.2139,-45.5723"/>
      <polygon fill="#555555" stroke="#555555" points="160.4517,-46.9228 161.7934,-36.4133 154.1907,-43.7923 160.4517,-46.9228"/>
    </g>
    <!-- weather -->
    <g id="weather" class="node">
      <title>weather</title>
      <polygon fill="#70ad47" stroke="transparent" points="219,-8 219,-28 267,-28 267,-8 219,-8"/>
      <text text-anchor="start" x="220.8492" y="-13.4" font-family="Times,serif" font-size="14.00" fill="#ffffff">weather</text>
      <polygon fill="none" stroke="#4a732f" stroke-opacity="0.666667" points="218,-7 218,-29 268,-29 268,-7 218,-7"/>
    </g>
    <!-- flights&#45;&gt;weather -->
    <g id="flights_4" class="edge">
      <title>flights:origin, time_hour-&gt;weather:origin, time_hour</title>
      <path fill="none" stroke="#555555" d="M162.253,-71.8314C175.9389,-62.7074 192.6915,-51.539 207.3827,-41.7449"/>
      <polygon fill="#555555" stroke="#555555" points="209.3767,-44.6221 215.7558,-36.1628 205.4938,-38.7977 209.3767,-44.6221"/>
    </g>
  </g>
</svg>
