<?xml version="1.0" encoding="UTF-8" standalone="no"?>
<!DOCTYPE svg PUBLIC "-//W3C//DTD SVG 1.1//EN" "http://www.w3.org/Graphics/SVG/1.1/DTD/svg11.dtd">
<!-- Generated by graphviz version 2.40.1 (20161225.0304)
 -->
<!-- Title: %0 Pages: 1 -->
<svg xmlns="http://www.w3.org/2000/svg" xmlns:xlink="http://www.w3.org/1999/xlink" width="354pt" height="808pt" viewBox="0.00 0.00 353.50 808.00">
  <g id="graph0" class="graph" transform="scale(1 1) rotate(0) translate(4 804)">
    <title>%0</title>
    <g id="a_graph0">
      <a xlink:title="Data Model">
        <polygon fill="#ffffff" stroke="transparent" points="-4,4 -4,-804 349.5,-804 349.5,4 -4,4"/>
      </a>
    </g>
    <!-- airlines -->
    <g id="airlines" class="node">
      <title>airlines</title>
      <polygon fill="#ed7d31" stroke="transparent" points="5,-181 5,-201 50,-201 50,-181 5,-181"/>
      <text text-anchor="start" x="6.8969" y="-186.4" font-family="Times,serif" font-size="14.00" fill="#ffffff">airlines</text>
      <polygon fill="#fbe5d5" stroke="transparent" points="5,-161 5,-181 50,-181 50,-161 5,-161"/>
      <text text-anchor="start" x="7" y="-167.4" font-family="Times,serif" text-decoration="underline" font-size="14.00" fill="#444444">carrier</text>
      <polygon fill="#fbe5d5" stroke="transparent" points="5,-141 5,-161 50,-161 50,-141 5,-141"/>
      <text text-anchor="start" x="7" y="-146.4" font-family="Times,serif" font-size="14.00" fill="#444444">name</text>
      <polygon fill="none" stroke="#9e5320" stroke-opacity="0.666667" points="3.5,-140 3.5,-202 50.5,-202 50.5,-140 3.5,-140"/>
    </g>
    <!-- airports -->
    <g id="airports" class="node">
      <title>airports</title>
      <polygon fill="#ed7d31" stroke="transparent" points="76,-241 76,-261 122,-261 122,-241 76,-241"/>
      <text text-anchor="start" x="77.6192" y="-246.4" font-family="Times,serif" font-size="14.00" fill="#ffffff">airports</text>
      <polygon fill="#fbe5d5" stroke="transparent" points="76,-221 76,-241 122,-241 122,-221 76,-221"/>
      <text text-anchor="start" x="78" y="-227.4" font-family="Times,serif" text-decoration="underline" font-size="14.00" fill="#444444">faa</text>
      <polygon fill="#fbe5d5" stroke="transparent" points="76,-201 76,-221 122,-221 122,-201 76,-201"/>
      <text text-anchor="start" x="78" y="-206.4" font-family="Times,serif" font-size="14.00" fill="#444444">name</text>
      <polygon fill="#fbe5d5" stroke="transparent" points="76,-181 76,-201 122,-201 122,-181 76,-181"/>
      <text text-anchor="start" x="78" y="-186.4" font-family="Times,serif" font-size="14.00" fill="#444444">lat</text>
      <polygon fill="#fbe5d5" stroke="transparent" points="76,-161 76,-181 122,-181 122,-161 76,-161"/>
      <text text-anchor="start" x="78" y="-166.4" font-family="Times,serif" font-size="14.00" fill="#444444">lon</text>
      <polygon fill="#fbe5d5" stroke="transparent" points="76,-141 76,-161 122,-161 122,-141 76,-141"/>
      <text text-anchor="start" x="78" y="-146.4" font-family="Times,serif" font-size="14.00" fill="#444444">alt</text>
      <polygon fill="#fbe5d5" stroke="transparent" points="76,-121 76,-141 122,-141 122,-121 76,-121"/>
      <text text-anchor="start" x="78" y="-126.4" font-family="Times,serif" font-size="14.00" fill="#444444">tz</text>
      <polygon fill="#fbe5d5" stroke="transparent" points="76,-101 76,-121 122,-121 122,-101 76,-101"/>
      <text text-anchor="start" x="78" y="-106.4" font-family="Times,serif" font-size="14.00" fill="#444444">dst</text>
      <polygon fill="#fbe5d5" stroke="transparent" points="76,-81 76,-101 122,-101 122,-81 76,-81"/>
      <text text-anchor="start" x="78" y="-86.4" font-family="Times,serif" font-size="14.00" fill="#444444">tzone</text>
      <polygon fill="none" stroke="#9e5320" stroke-opacity="0.666667" points="75,-80 75,-262 123,-262 123,-80 75,-80"/>
    </g>
    <!-- flights -->
    <g id="flights" class="node">
      <title>flights</title>
      <polygon fill="#5b9bd5" stroke="transparent" points="90,-779 90,-799 191,-799 191,-779 90,-779"/>
      <text text-anchor="start" x="122.6115" y="-784.4" font-family="Times,serif" font-size="14.00" fill="#ffffff">flights</text>
      <polygon fill="#deebf6" stroke="transparent" points="90,-759 90,-779 191,-779 191,-759 90,-759"/>
      <text text-anchor="start" x="92" y="-764.4" font-family="Times,serif" font-size="14.00" fill="#444444">year</text>
      <polygon fill="#deebf6" stroke="transparent" points="90,-739 90,-759 191,-759 191,-739 90,-739"/>
      <text text-anchor="start" x="92" y="-744.4" font-family="Times,serif" font-size="14.00" fill="#444444">month</text>
      <polygon fill="#deebf6" stroke="transparent" points="90,-719 90,-739 191,-739 191,-719 90,-719"/>
      <text text-anchor="start" x="92" y="-724.4" font-family="Times,serif" font-size="14.00" fill="#444444">day</text>
      <polygon fill="#deebf6" stroke="transparent" points="90,-699 90,-719 191,-719 191,-699 90,-699"/>
      <text text-anchor="start" x="92" y="-704.4" font-family="Times,serif" font-size="14.00" fill="#444444">dep_time</text>
      <polygon fill="#deebf6" stroke="transparent" points="90,-679 90,-699 191,-699 191,-679 90,-679"/>
      <text text-anchor="start" x="92" y="-684.4" font-family="Times,serif" font-size="14.00" fill="#444444">sched_dep_time</text>
      <polygon fill="#deebf6" stroke="transparent" points="90,-659 90,-679 191,-679 191,-659 90,-659"/>
      <text text-anchor="start" x="92" y="-664.4" font-family="Times,serif" font-size="14.00" fill="#444444">dep_delay</text>
      <polygon fill="#deebf6" stroke="transparent" points="90,-639 90,-659 191,-659 191,-639 90,-639"/>
      <text text-anchor="start" x="92" y="-644.4" font-family="Times,serif" font-size="14.00" fill="#444444">arr_time</text>
      <polygon fill="#deebf6" stroke="transparent" points="90,-619 90,-639 191,-639 191,-619 90,-619"/>
      <text text-anchor="start" x="92" y="-624.4" font-family="Times,serif" font-size="14.00" fill="#444444">sched_arr_time</text>
      <polygon fill="#deebf6" stroke="transparent" points="90,-599 90,-619 191,-619 191,-599 90,-599"/>
      <text text-anchor="start" x="92" y="-604.4" font-family="Times,serif" font-size="14.00" fill="#444444">arr_delay</text>
      <polygon fill="#deebf6" stroke="transparent" points="90,-579 90,-599 191,-599 191,-579 90,-579"/>
      <text text-anchor="start" x="92" y="-584.4" font-family="Times,serif" font-size="14.00" fill="#444444">carrier</text>
      <polygon fill="#deebf6" stroke="transparent" points="90,-559 90,-579 191,-579 191,-559 90,-559"/>
      <text text-anchor="start" x="92" y="-564.4" font-family="Times,serif" font-size="14.00" fill="#444444">flight</text>
      <polygon fill="#deebf6" stroke="transparent" points="90,-539 90,-559 191,-559 191,-539 90,-539"/>
      <text text-anchor="start" x="92" y="-544.4" font-family="Times,serif" font-size="14.00" fill="#444444">tailnum</text>
      <polygon fill="#deebf6" stroke="transparent" points="90,-519 90,-539 191,-539 191,-519 90,-519"/>
      <text text-anchor="start" x="92" y="-524.4" font-family="Times,serif" font-size="14.00" fill="#444444">origin</text>
      <polygon fill="#deebf6" stroke="transparent" points="90,-499 90,-519 191,-519 191,-499 90,-499"/>
      <text text-anchor="start" x="92" y="-504.4" font-family="Times,serif" font-size="14.00" fill="#444444">dest</text>
      <polygon fill="#deebf6" stroke="transparent" points="90,-479 90,-499 191,-499 191,-479 90,-479"/>
      <text text-anchor="start" x="92" y="-484.4" font-family="Times,serif" font-size="14.00" fill="#444444">air_time</text>
      <polygon fill="#deebf6" stroke="transparent" points="90,-459 90,-479 191,-479 191,-459 90,-459"/>
      <text text-anchor="start" x="92" y="-464.4" font-family="Times,serif" font-size="14.00" fill="#444444">distance</text>
      <polygon fill="#deebf6" stroke="transparent" points="90,-439 90,-459 191,-459 191,-439 90,-439"/>
      <text text-anchor="start" x="92" y="-444.4" font-family="Times,serif" font-size="14.00" fill="#444444">hour</text>
      <polygon fill="#deebf6" stroke="transparent" points="90,-419 90,-439 191,-439 191,-419 90,-419"/>
      <text text-anchor="start" x="92" y="-424.4" font-family="Times,serif" font-size="14.00" fill="#444444">minute</text>
      <polygon fill="#deebf6" stroke="transparent" points="90,-399 90,-419 191,-419 191,-399 90,-399"/>
      <text text-anchor="start" x="92" y="-404.4" font-family="Times,serif" font-size="14.00" fill="#444444">time_hour</text>
      <polygon fill="#deebf6" stroke="transparent" points="90,-379 90,-399 191,-399 191,-379 90,-379"/>
      <text text-anchor="start" x="91.5056" y="-384.4" font-family="Times,serif" font-size="14.00" fill="#444444">origin, time_hour</text>
      <polygon fill="none" stroke="#3c678e" stroke-opacity="0.666667" points="88.5,-378 88.5,-800 191.5,-800 191.5,-378 88.5,-378"/>
    </g>
    <!-- flights&#45;&gt;airlines -->
    <g id="flights_1" class="edge">
      <title>flights:carrier-&gt;airlines:carrier</title>
      <path fill="none" stroke="#555555" d="M90,-589C-20.4317,-589 73.187,-451.9608 63,-342 62.2516,-333.9214 60.2596,-215.5995 53.8014,-180.6507"/>
      <polygon fill="#555555" stroke="#555555" points="56.9215,-179.0215 50,-171 50.4085,-181.587 56.9215,-179.0215"/>
    </g>
    <!-- flights&#45;&gt;airports -->
    <g id="flights_2" class="edge">
      <title>flights:origin-&gt;airports:faa</title>
      <path fill="none" stroke="#555555" d="M90,-529C-29.5159,-529 105.9636,-380.4351 122,-262 123.0543,-254.2134 127.3874,-245.2255 128.3607,-238.9391"/>
      <polygon fill="#555555" stroke="#555555" points="130.9841,-236.6158 122,-231 125.5212,-240.9926 130.9841,-236.6158"/>
    </g>
    <!-- planes -->
    <g id="planes" class="node">
      <title>planes</title>
      <polygon fill="#ed7d31" stroke="transparent" points="145,-251 145,-271 223,-271 223,-251 145,-251"/>
      <text text-anchor="start" x="166.1178" y="-256.4" font-family="Times,serif" font-size="14.00" fill="#ffffff">planes</text>
      <polygon fill="#fbe5d5" stroke="transparent" points="145,-231 145,-251 223,-251 223,-231 145,-231"/>
      <text text-anchor="start" x="147" y="-237.4" font-family="Times,serif" text-decoration="underline" font-size="14.00" fill="#444444">tailnum</text>
      <polygon fill="#fbe5d5" stroke="transparent" points="145,-211 145,-231 223,-231 223,-211 145,-211"/>
      <text text-anchor="start" x="147" y="-216.4" font-family="Times,serif" font-size="14.00" fill="#444444">year</text>
      <polygon fill="#fbe5d5" stroke="transparent" points="145,-191 145,-211 223,-211 223,-191 145,-191"/>
      <text text-anchor="start" x="147" y="-196.4" font-family="Times,serif" font-size="14.00" fill="#444444">type</text>
      <polygon fill="#fbe5d5" stroke="transparent" points="145,-171 145,-191 223,-191 223,-171 145,-171"/>
      <text text-anchor="start" x="146.6893" y="-176.4" font-family="Times,serif" font-size="14.00" fill="#444444">manufacturer</text>
      <polygon fill="#fbe5d5" stroke="transparent" points="145,-151 145,-171 223,-171 223,-151 145,-151"/>
      <text text-anchor="start" x="147" y="-156.4" font-family="Times,serif" font-size="14.00" fill="#444444">model</text>
      <polygon fill="#fbe5d5" stroke="transparent" points="145,-131 145,-151 223,-151 223,-131 145,-131"/>
      <text text-anchor="start" x="147" y="-136.4" font-family="Times,serif" font-size="14.00" fill="#444444">engines</text>
      <polygon fill="#fbe5d5" stroke="transparent" points="145,-111 145,-131 223,-131 223,-111 145,-111"/>
      <text text-anchor="start" x="147" y="-116.4" font-family="Times,serif" font-size="14.00" fill="#444444">seats</text>
      <polygon fill="#fbe5d5" stroke="transparent" points="145,-91 145,-111 223,-111 223,-91 145,-91"/>
      <text text-anchor="start" x="147" y="-96.4" font-family="Times,serif" font-size="14.00" fill="#444444">speed</text>
      <polygon fill="#fbe5d5" stroke="transparent" points="145,-71 145,-91 223,-91 223,-71 145,-71"/>
      <text text-anchor="start" x="147" y="-76.4" font-family="Times,serif" font-size="14.00" fill="#444444">engine</text>
      <polygon fill="none" stroke="#9e5320" stroke-opacity="0.666667" points="144,-70 144,-272 224,-272 224,-70 144,-70"/>
    </g>
    <!-- flights&#45;&gt;planes -->
    <g id="flights_3" class="edge">
      <title>flights:tailnum-&gt;planes:tailnum</title>
      <path fill="none" stroke="#555555" d="M191,-549C267,-549 206.4502,-452.413 191,-378 185.4404,-351.2233 132.7039,-270.7039 137.0017,-247.3897"/>
      <polygon fill="#555555" stroke="#555555" points="139.3716,-249.9762 145,-241 135.0025,-244.5071 139.3716,-249.9762"/>
    </g>
    <!-- weather -->
    <g id="weather" class="node">
      <title>weather</title>
      <polygon fill="#70ad47" stroke="transparent" points="244,-321 244,-341 345,-341 345,-321 244,-321"/>
      <text text-anchor="start" x="272.3492" y="-326.4" font-family="Times,serif" font-size="14.00" fill="#ffffff">weather</text>
      <polygon fill="#e2eeda" stroke="transparent" points="244,-301 244,-321 345,-321 345,-301 244,-301"/>
      <text text-anchor="start" x="246" y="-306.4" font-family="Times,serif" font-size="14.00" fill="#444444">origin</text>
      <polygon fill="#e2eeda" stroke="transparent" points="244,-281 244,-301 345,-301 345,-281 244,-281"/>
      <text text-anchor="start" x="246" y="-286.4" font-family="Times,serif" font-size="14.00" fill="#444444">year</text>
      <polygon fill="#e2eeda" stroke="transparent" points="244,-261 244,-281 345,-281 345,-261 244,-261"/>
      <text text-anchor="start" x="246" y="-266.4" font-family="Times,serif" font-size="14.00" fill="#444444">month</text>
      <polygon fill="#e2eeda" stroke="transparent" points="244,-241 244,-261 345,-261 345,-241 244,-241"/>
      <text text-anchor="start" x="246" y="-246.4" font-family="Times,serif" font-size="14.00" fill="#444444">day</text>
      <polygon fill="#e2eeda" stroke="transparent" points="244,-221 244,-241 345,-241 345,-221 244,-221"/>
      <text text-anchor="start" x="246" y="-226.4" font-family="Times,serif" font-size="14.00" fill="#444444">hour</text>
      <polygon fill="#e2eeda" stroke="transparent" points="244,-201 244,-221 345,-221 345,-201 244,-201"/>
      <text text-anchor="start" x="246" y="-206.4" font-family="Times,serif" font-size="14.00" fill="#444444">temp</text>
      <polygon fill="#e2eeda" stroke="transparent" points="244,-181 244,-201 345,-201 345,-181 244,-181"/>
      <text text-anchor="start" x="246" y="-186.4" font-family="Times,serif" font-size="14.00" fill="#444444">dewp</text>
      <polygon fill="#e2eeda" stroke="transparent" points="244,-161 244,-181 345,-181 345,-161 244,-161"/>
      <text text-anchor="start" x="246" y="-166.4" font-family="Times,serif" font-size="14.00" fill="#444444">humid</text>
      <polygon fill="#e2eeda" stroke="transparent" points="244,-141 244,-161 345,-161 345,-141 244,-141"/>
      <text text-anchor="start" x="246" y="-146.4" font-family="Times,serif" font-size="14.00" fill="#444444">wind_dir</text>
      <polygon fill="#e2eeda" stroke="transparent" points="244,-121 244,-141 345,-141 345,-121 244,-121"/>
      <text text-anchor="start" x="246" y="-126.4" font-family="Times,serif" font-size="14.00" fill="#444444">wind_speed</text>
      <polygon fill="#e2eeda" stroke="transparent" points="244,-101 244,-121 345,-121 345,-101 244,-101"/>
      <text text-anchor="start" x="246" y="-106.4" font-family="Times,serif" font-size="14.00" fill="#444444">wind_gust</text>
      <polygon fill="#e2eeda" stroke="transparent" points="244,-81 244,-101 345,-101 345,-81 244,-81"/>
      <text text-anchor="start" x="246" y="-86.4" font-family="Times,serif" font-size="14.00" fill="#444444">precip</text>
      <polygon fill="#e2eeda" stroke="transparent" points="244,-61 244,-81 345,-81 345,-61 244,-61"/>
      <text text-anchor="start" x="246" y="-66.4" font-family="Times,serif" font-size="14.00" fill="#444444">pressure</text>
      <polygon fill="#e2eeda" stroke="transparent" points="244,-41 244,-61 345,-61 345,-41 244,-41"/>
      <text text-anchor="start" x="246" y="-46.4" font-family="Times,serif" font-size="14.00" fill="#444444">visib</text>
      <polygon fill="#e2eeda" stroke="transparent" points="244,-21 244,-41 345,-41 345,-21 244,-21"/>
      <text text-anchor="start" x="246" y="-26.4" font-family="Times,serif" font-size="14.00" fill="#444444">time_hour</text>
      <polygon fill="#e2eeda" stroke="transparent" points="244,-1 244,-21 345,-21 345,-1 244,-1"/>
      <text text-anchor="start" x="245.5056" y="-7.4" font-family="Times,serif" text-decoration="underline" font-size="14.00" fill="#444444">origin, time_hour</text>
      <polygon fill="none" stroke="#4a732f" stroke-opacity="0.666667" points="242.5,0 242.5,-342 345.5,-342 345.5,0 242.5,0"/>
    </g>
    <!-- flights&#45;&gt;weather -->
    <g id="flights_4" class="edge">
      <title>flights:origin, time_hour-&gt;weather:origin, time_hour</title>
      <path fill="none" stroke="#555555" d="M191,-389C219.0141,-389 222.5765,-368.0027 233,-342 239.1506,-326.6565 228.2769,-71.7035 239.3479,-20.0744"/>
      <polygon fill="#555555" stroke="#555555" points="242.5525,-21.4955 244,-11 236.3233,-18.302 242.5525,-21.4955"/>
    </g>
  </g>
</svg>
