<svg version="1.1" viewBox="0.0 0.0 960.0 540.0" fill="none" stroke="none" stroke-linecap="square" stroke-miterlimit="10" xmlns:xlink="http://www.w3.org/1999/xlink" xmlns="http://www.w3.org/2000/svg"><clipPath id="g136c45dcd68_0_0.0"><path d="m0 0l960.0 0l0 540.0l-960.0 0l0 -540.0z" clip-rule="nonzero"/></clipPath><g clip-path="url(#g136c45dcd68_0_0.0)"><path fill="#ffffff" d="m0 0l960.0 0l0 540.0l-960.0 0z" fill-rule="evenodd"/><path fill="#000000" fill-opacity="0.0" d="m542.1036 278.2847l95.811035 0" fill-rule="evenodd"/><path stroke="#595959" stroke-width="8.0" stroke-linejoin="round" stroke-linecap="butt" d="m542.1036 278.2847l47.811035 0" fill-rule="evenodd"/><path fill="#595959" stroke="#595959" stroke-width="8.0" stroke-linecap="butt" d="m589.9146 291.49857l36.30481 -13.213867l-36.30481 -13.213867z" fill-rule="evenodd"/><path fill="#000000" fill-opacity="0.0" d="m702.3963 222.21523l19.716553 0l0 42.01573l-19.716553 0z" fill-rule="evenodd"/><path fill="#000000" fill-opacity="0.0" d="m171.7979 232.6588l24.031494 0l0 42.01573l-24.031494 0z" fill-rule="evenodd"/><defs><radialGradient id="g136c45dcd68_0_0.1" gradientUnits="userSpaceOnUse" gradientTransform="matrix(5.405324221326973 0.0 0.0 5.405324221326973 0.0 0.0)" spreadMethod="pad" cx="129.79450188413722" cy="39.93874944855424" fx="129.79450188413722" fy="39.93874944855424" r="5.405324459075928"><stop offset="0.0" stop-color="#51ab2a"/><stop offset="1.0" stop-color="#203e13"/></radialGradient></defs><path shape-rendering="crispEdges" fill="url(#g136c45dcd68_0_0.1)" d="m681.06036 195.08398l41.041992 0l0 41.59581l-41.041992 0l0 -41.59581z" fill-rule="nonzero"/><defs><radialGradient id="g136c45dcd68_0_0.2" gradientUnits="userSpaceOnUse" gradientTransform="matrix(5.405324221326973 0.0 0.0 5.405324221326973 0.0 0.0)" spreadMethod="pad" cx="129.79450188413722" cy="47.63408812237812" fx="129.79450188413722" fy="47.63408812237812" r="5.405324459075928"><stop offset="0.0" stop-color="#51ab2a"/><stop offset="1.0" stop-color="#203e13"/></radialGradient></defs><path shape-rendering="crispEdges" fill="url(#g136c45dcd68_0_0.2)" d="m681.06036 236.6798l41.041992 0l0 41.59581l-41.041992 0l0 -41.59581z" fill-rule="nonzero"/><defs><radialGradient id="g136c45dcd68_0_0.3" gradientUnits="userSpaceOnUse" gradientTransform="matrix(5.405324221326973 0.0 0.0 5.405324221326973 0.0 0.0)" spreadMethod="pad" cx="129.79450188413722" cy="55.32942679620199" fx="129.79450188413722" fy="55.32942679620199" r="5.405324459075928"><stop offset="0.0" stop-color="#51ab2a"/><stop offset="1.0" stop-color="#203e13"/></radialGradient></defs><path shape-rendering="crispEdges" fill="url(#g136c45dcd68_0_0.3)" d="m681.06036 278.2756l41.041992 0l0 41.595795l-41.041992 0l0 -41.595795z" fill-rule="nonzero"/><defs><radialGradient id="g136c45dcd68_0_0.4" gradientUnits="userSpaceOnUse" gradientTransform="matrix(5.405324221326973 0.0 0.0 5.405324221326973 0.0 0.0)" spreadMethod="pad" cx="129.79450188413722" cy="63.02476547002587" fx="129.79450188413722" fy="63.02476547002587" r="5.405324459075928"><stop offset="0.0" stop-color="#51ab2a"/><stop offset="1.0" stop-color="#203e13"/></radialGradient></defs><path shape-rendering="crispEdges" fill="url(#g136c45dcd68_0_0.4)" d="m681.06036 319.8714l41.041992 0l0 41.595795l-41.041992 0l0 -41.595795z" fill-rule="nonzero"/><path stroke="#93c47d" stroke-width="4.0" stroke-linecap="butt" d="m681.06036 193.08398l0 45.59581" fill-rule="nonzero"/><path stroke="#93c47d" stroke-width="2.0" stroke-linecap="butt" d="m681.06036 238.6798l0 123.7874" fill-rule="nonzero"/><path stroke="#93c47d" stroke-width="4.0" stroke-linecap="butt" d="m722.10236 193.08398l0 45.59581" fill-rule="nonzero"/><path stroke="#93c47d" stroke-width="2.0" stroke-linecap="butt" d="m722.10236 238.6798l0 123.7874" fill-rule="nonzero"/><path stroke="#93c47d" stroke-width="4.0" stroke-linecap="butt" d="m763.14435 193.08398l0 45.59581" fill-rule="nonzero"/><path stroke="#93c47d" stroke-width="2.0" stroke-linecap="butt" d="m763.14435 238.6798l0 123.7874" fill-rule="nonzero"/><path stroke="#93c47d" stroke-width="4.0" stroke-linecap="butt" d="m804.18634 193.08398l0 45.59581" fill-rule="nonzero"/><path stroke="#93c47d" stroke-width="2.0" stroke-linecap="butt" d="m804.18634 238.6798l0 123.7874" fill-rule="nonzero"/><path stroke="#93c47d" stroke-width="4.0" stroke-linecap="butt" d="m845.22833 193.08398l0 45.59581" fill-rule="nonzero"/><path stroke="#93c47d" stroke-width="2.0" stroke-linecap="butt" d="m845.22833 238.6798l0 123.7874" fill-rule="nonzero"/><path stroke="#93c47d" stroke-width="4.0" stroke-linecap="butt" d="m679.06036 195.08398l168.16797 0" fill-rule="nonzero"/><path stroke="#93c47d" stroke-width="4.0" stroke-linecap="butt" d="m679.06036 236.6798l168.16797 0" fill-rule="nonzero"/><path stroke="#93c47d" stroke-width="2.0" stroke-linecap="butt" d="m680.06036 278.2756l166.16797 0" fill-rule="nonzero"/><path stroke="#93c47d" stroke-width="2.0" stroke-linecap="butt" d="m680.06036 319.8714l166.16797 0" fill-rule="nonzero"/><path stroke="#93c47d" stroke-width="2.0" stroke-linecap="butt" d="m680.06036 361.4672l166.16797 0" fill-rule="nonzero"/><path fill="#000000" fill-opacity="0.0" d="m117.141304 141.66016l0 0c0 -37.727165 30.5839 -68.31107 68.31107 -68.31107l282.8109 0l0 0c18.117218 0 35.4924 7.1970367 48.303223 20.00785c12.810791 12.810814 20.007874 30.186005 20.007874 48.303223l0 273.2361c0 37.727173 -30.583954 68.311066 -68.3111 68.311066l-282.8109 0c-37.727173 0 -68.31107 -30.583893 -68.31107 -68.311066z" fill-rule="evenodd"/><path stroke="#6366f1" stroke-width="4.0" stroke-linejoin="round" stroke-linecap="butt" d="m117.141304 141.66016l0 0c0 -37.727165 30.5839 -68.31107 68.31107 -68.31107l282.8109 0l0 0c18.117218 0 35.4924 7.1970367 48.303223 20.00785c12.810791 12.810814 20.007874 30.186005 20.007874 48.303223l0 273.2361c0 37.727173 -30.583954 68.311066 -68.3111 68.311066l-282.8109 0c-37.727173 0 -68.31107 -30.583893 -68.31107 -68.311066z" fill-rule="evenodd"/><path fill="#000000" fill-opacity="0.0" d="m174.39633 222.21523l19.716522 0l0 42.01573l-19.716522 0z" fill-rule="evenodd"/><defs><radialGradient id="g136c45dcd68_0_0.5" gradientUnits="userSpaceOnUse" gradientTransform="matrix(5.405324221326973 0.0 0.0 5.405324221326973 0.0 0.0)" spreadMethod="pad" cx="29.264186239568428" cy="38.16544197525762" fx="29.264186239568428" fy="38.16544197525762" r="5.405324459075928"><stop offset="0.0" stop-color="#3177ee"/><stop offset="1.0" stop-color="#113d8a"/></radialGradient></defs><path shape-rendering="crispEdges" fill="url(#g136c45dcd68_0_0.5)" d="m137.66142 185.49869l41.041992 0l0 41.595795l-41.041992 0l0 -41.595795z" fill-rule="nonzero"/><defs><radialGradient id="g136c45dcd68_0_0.6" gradientUnits="userSpaceOnUse" gradientTransform="matrix(5.405324221326973 0.0 0.0 5.405324221326973 0.0 0.0)" spreadMethod="pad" cx="29.264186239568428" cy="45.8607806490815" fx="29.264186239568428" fy="45.8607806490815" r="5.405324459075928"><stop offset="0.0" stop-color="#3177ee"/><stop offset="1.0" stop-color="#113d8a"/></radialGradient></defs><path shape-rendering="crispEdges" fill="url(#g136c45dcd68_0_0.6)" d="m137.66142 227.09448l41.041992 0l0 41.595795l-41.041992 0l0 -41.595795z" fill-rule="nonzero"/><defs><radialGradient id="g136c45dcd68_0_0.7" gradientUnits="userSpaceOnUse" gradientTransform="matrix(5.405324221326973 0.0 0.0 5.405324221326973 0.0 0.0)" spreadMethod="pad" cx="29.264186239568428" cy="53.556119322905374" fx="29.264186239568428" fy="53.556119322905374" r="5.405324459075928"><stop offset="0.0" stop-color="#3177ee"/><stop offset="1.0" stop-color="#113d8a"/></radialGradient></defs><path shape-rendering="crispEdges" fill="url(#g136c45dcd68_0_0.7)" d="m137.66142 268.69028l41.041992 0l0 41.595825l-41.041992 0l0 -41.595825z" fill-rule="nonzero"/><defs><radialGradient id="g136c45dcd68_0_0.8" gradientUnits="userSpaceOnUse" gradientTransform="matrix(5.405324221326973 0.0 0.0 5.405324221326973 0.0 0.0)" spreadMethod="pad" cx="29.264186239568428" cy="61.25145799672925" fx="29.264186239568428" fy="61.25145799672925" r="5.405324459075928"><stop offset="0.0" stop-color="#3177ee"/><stop offset="1.0" stop-color="#113d8a"/></radialGradient></defs><path shape-rendering="crispEdges" fill="url(#g136c45dcd68_0_0.8)" d="m137.66142 310.2861l41.041992 0l0 41.595795l-41.041992 0l0 -41.595795z" fill-rule="nonzero"/><path stroke="#4285f4" stroke-width="4.0" stroke-linecap="butt" d="m137.66142 183.49869l0 45.595795" fill-rule="nonzero"/><path stroke="#4285f4" stroke-width="2.0" stroke-linecap="butt" d="m137.66142 229.09448l0 123.787415" fill-rule="nonzero"/><path stroke="#4285f4" stroke-width="4.0" stroke-linecap="butt" d="m178.70341 183.49869l0 45.595795" fill-rule="nonzero"/><path stroke="#4285f4" stroke-width="2.0" stroke-linecap="butt" d="m178.70341 229.09448l0 123.787415" fill-rule="nonzero"/><path stroke="#4285f4" stroke-width="4.0" stroke-linecap="butt" d="m219.7454 183.49869l0 45.595795" fill-rule="nonzero"/><path stroke="#4285f4" stroke-width="2.0" stroke-linecap="butt" d="m219.7454 229.09448l0 123.787415" fill-rule="nonzero"/><path stroke="#4285f4" stroke-width="4.0" stroke-linecap="butt" d="m260.7874 183.49869l0 45.595795" fill-rule="nonzero"/><path stroke="#4285f4" stroke-width="2.0" stroke-linecap="butt" d="m260.7874 229.09448l0 123.787415" fill-rule="nonzero"/><path stroke="#4285f4" stroke-width="4.0" stroke-linecap="butt" d="m301.8294 183.49869l0 45.595795" fill-rule="nonzero"/><path stroke="#4285f4" stroke-width="2.0" stroke-linecap="butt" d="m301.8294 229.09448l0 123.787415" fill-rule="nonzero"/><path stroke="#4285f4" stroke-width="4.0" stroke-linecap="butt" d="m135.66142 185.49869l168.16798 0" fill-rule="nonzero"/><path stroke="#4285f4" stroke-width="4.0" stroke-linecap="butt" d="m135.66142 227.09448l168.16798 0" fill-rule="nonzero"/><path stroke="#4285f4" stroke-width="2.0" stroke-linecap="butt" d="m136.66142 268.69028l166.16798 0" fill-rule="nonzero"/><path stroke="#4285f4" stroke-width="2.0" stroke-linecap="butt" d="m136.66142 310.2861l166.16798 0" fill-rule="nonzero"/><path stroke="#4285f4" stroke-width="2.0" stroke-linecap="butt" d="m136.66142 351.8819l166.16798 0" fill-rule="nonzero"/><defs><radialGradient id="g136c45dcd68_0_0.9" gradientUnits="userSpaceOnUse" gradientTransform="matrix(5.405324221326973 0.0 0.0 5.405324221326973 0.0 0.0)" spreadMethod="pad" cx="64.76918143328383" cy="25.86008655677929" fx="64.76918143328383" fy="25.86008655677929" r="5.405324459075928"><stop offset="0.0" stop-color="#51ab2a"/><stop offset="1.0" stop-color="#203e13"/></radialGradient></defs><path shape-rendering="crispEdges" fill="url(#g136c45dcd68_0_0.9)" d="m329.57742 118.98425l41.041992 0l0 41.595795l-41.041992 0l0 -41.595795z" fill-rule="nonzero"/><defs><radialGradient id="g136c45dcd68_0_0.10" gradientUnits="userSpaceOnUse" gradientTransform="matrix(5.405324221326973 0.0 0.0 5.405324221326973 0.0 0.0)" spreadMethod="pad" cx="64.76918143328383" cy="33.55542523060316" fx="64.76918143328383" fy="33.55542523060316" r="5.405324459075928"><stop offset="0.0" stop-color="#51ab2a"/><stop offset="1.0" stop-color="#203e13"/></radialGradient></defs><path shape-rendering="crispEdges" fill="url(#g136c45dcd68_0_0.10)" d="m329.57742 160.58005l41.041992 0l0 41.59581l-41.041992 0l0 -41.59581z" fill-rule="nonzero"/><defs><radialGradient id="g136c45dcd68_0_0.11" gradientUnits="userSpaceOnUse" gradientTransform="matrix(5.405324221326973 0.0 0.0 5.405324221326973 0.0 0.0)" spreadMethod="pad" cx="64.76918143328383" cy="41.25076390442704" fx="64.76918143328383" fy="41.25076390442704" r="5.405324459075928"><stop offset="0.0" stop-color="#51ab2a"/><stop offset="1.0" stop-color="#203e13"/></radialGradient></defs><path shape-rendering="crispEdges" fill="url(#g136c45dcd68_0_0.11)" d="m329.57742 202.17586l41.041992 0l0 41.595795l-41.041992 0l0 -41.595795z" fill-rule="nonzero"/><defs><radialGradient id="g136c45dcd68_0_0.12" gradientUnits="userSpaceOnUse" gradientTransform="matrix(5.405324221326973 0.0 0.0 5.405324221326973 0.0 0.0)" spreadMethod="pad" cx="64.76918143328383" cy="48.946102578250915" fx="64.76918143328383" fy="48.946102578250915" r="5.405324459075928"><stop offset="0.0" stop-color="#51ab2a"/><stop offset="1.0" stop-color="#203e13"/></radialGradient></defs><path shape-rendering="crispEdges" fill="url(#g136c45dcd68_0_0.12)" d="m329.57742 243.77165l41.041992 0l0 41.59581l-41.041992 0l0 -41.59581z" fill-rule="nonzero"/><path stroke="#93c47d" stroke-width="4.0" stroke-linecap="butt" d="m329.57742 116.98425l0 45.595795" fill-rule="nonzero"/><path stroke="#93c47d" stroke-width="2.0" stroke-linecap="butt" d="m329.57742 162.58005l0 123.787415" fill-rule="nonzero"/><path stroke="#93c47d" stroke-width="4.0" stroke-linecap="butt" d="m370.61942 116.98425l0 45.595795" fill-rule="nonzero"/><path stroke="#93c47d" stroke-width="2.0" stroke-linecap="butt" d="m370.61942 162.58005l0 123.787415" fill-rule="nonzero"/><path stroke="#93c47d" stroke-width="4.0" stroke-linecap="butt" d="m411.6614 116.98425l0 45.595795" fill-rule="nonzero"/><path stroke="#93c47d" stroke-width="2.0" stroke-linecap="butt" d="m411.6614 162.58005l0 123.787415" fill-rule="nonzero"/><path stroke="#93c47d" stroke-width="4.0" stroke-linecap="butt" d="m452.7034 116.98425l0 45.595795" fill-rule="nonzero"/><path stroke="#93c47d" stroke-width="2.0" stroke-linecap="butt" d="m452.7034 162.58005l0 123.787415" fill-rule="nonzero"/><path stroke="#93c47d" stroke-width="4.0" stroke-linecap="butt" d="m493.7454 116.98425l0 45.595795" fill-rule="nonzero"/><path stroke="#93c47d" stroke-width="2.0" stroke-linecap="butt" d="m493.7454 162.58005l0 123.787415" fill-rule="nonzero"/><path stroke="#93c47d" stroke-width="4.0" stroke-linecap="butt" d="m327.57742 118.98425l168.16797 0" fill-rule="nonzero"/><path stroke="#93c47d" stroke-width="4.0" stroke-linecap="butt" d="m327.57742 160.58005l168.16797 0" fill-rule="nonzero"/><path stroke="#93c47d" stroke-width="2.0" stroke-linecap="butt" d="m328.57742 202.17586l166.16797 0" fill-rule="nonzero"/><path stroke="#93c47d" stroke-width="2.0" stroke-linecap="butt" d="m328.57742 243.77165l166.16797 0" fill-rule="nonzero"/><path stroke="#93c47d" stroke-width="2.0" stroke-linecap="butt" d="m328.57742 285.36746l166.16797 0" fill-rule="nonzero"/><defs><radialGradient id="g136c45dcd68_0_0.13" gradientUnits="userSpaceOnUse" gradientTransform="matrix(5.405324221326973 0.0 0.0 5.405324221326973 0.0 0.0)" spreadMethod="pad" cx="66.25891509376413" cy="59.98324209893186" fx="66.25891509376413" fy="59.98324209893186" r="5.405324459075928"><stop offset="0.0" stop-color="#f48208"/><stop offset="1.0" stop-color="#703e08"/></radialGradient></defs><path shape-rendering="crispEdges" fill="url(#g136c45dcd68_0_0.13)" d="m337.6299 303.43097l41.041992 0l0 41.595795l-41.041992 0l0 -41.595795z" fill-rule="nonzero"/><defs><radialGradient id="g136c45dcd68_0_0.14" gradientUnits="userSpaceOnUse" gradientTransform="matrix(5.405324221326973 0.0 0.0 5.405324221326973 0.0 0.0)" spreadMethod="pad" cx="66.25891509376413" cy="67.67858077275574" fx="66.25891509376413" fy="67.67858077275574" r="5.405324459075928"><stop offset="0.0" stop-color="#f48208"/><stop offset="1.0" stop-color="#703e08"/></radialGradient></defs><path shape-rendering="crispEdges" fill="url(#g136c45dcd68_0_0.14)" d="m337.6299 345.02676l41.041992 0l0 41.595795l-41.041992 0l0 -41.595795z" fill-rule="nonzero"/><defs><radialGradient id="g136c45dcd68_0_0.15" gradientUnits="userSpaceOnUse" gradientTransform="matrix(5.405324221326973 0.0 0.0 5.405324221326973 0.0 0.0)" spreadMethod="pad" cx="66.25891509376413" cy="75.3739194465796" fx="66.25891509376413" fy="75.3739194465796" r="5.405324459075928"><stop offset="0.0" stop-color="#f48208"/><stop offset="1.0" stop-color="#703e08"/></radialGradient></defs><path shape-rendering="crispEdges" fill="url(#g136c45dcd68_0_0.15)" d="m337.6299 386.62256l41.041992 0l0 41.595825l-41.041992 0l0 -41.595825z" fill-rule="nonzero"/><defs><radialGradient id="g136c45dcd68_0_0.16" gradientUnits="userSpaceOnUse" gradientTransform="matrix(5.405324221326973 0.0 0.0 5.405324221326973 0.0 0.0)" spreadMethod="pad" cx="66.25891509376413" cy="83.06925812040349" fx="66.25891509376413" fy="83.06925812040349" r="5.405324459075928"><stop offset="0.0" stop-color="#f48208"/><stop offset="1.0" stop-color="#703e08"/></radialGradient></defs><path shape-rendering="crispEdges" fill="url(#g136c45dcd68_0_0.16)" d="m337.6299 428.21838l41.041992 0l0 41.595795l-41.041992 0l0 -41.595795z" fill-rule="nonzero"/><path stroke="#f6b26b" stroke-width="4.0" stroke-linecap="butt" d="m337.6299 301.43097l0 45.595795" fill-rule="nonzero"/><path stroke="#f6b26b" stroke-width="2.0" stroke-linecap="butt" d="m337.6299 347.02676l0 123.787415" fill-rule="nonzero"/><path stroke="#f6b26b" stroke-width="4.0" stroke-linecap="butt" d="m378.6719 301.43097l0 45.595795" fill-rule="nonzero"/><path stroke="#f6b26b" stroke-width="2.0" stroke-linecap="butt" d="m378.6719 347.02676l0 123.787415" fill-rule="nonzero"/><path stroke="#f6b26b" stroke-width="4.0" stroke-linecap="butt" d="m419.7139 301.43097l0 45.595795" fill-rule="nonzero"/><path stroke="#f6b26b" stroke-width="2.0" stroke-linecap="butt" d="m419.7139 347.02676l0 123.787415" fill-rule="nonzero"/><path stroke="#f6b26b" stroke-width="4.0" stroke-linecap="butt" d="m460.75592 301.43097l0 45.595795" fill-rule="nonzero"/><path stroke="#f6b26b" stroke-width="2.0" stroke-linecap="butt" d="m460.75592 347.02676l0 123.787415" fill-rule="nonzero"/><path stroke="#f6b26b" stroke-width="4.0" stroke-linecap="butt" d="m501.7979 301.43097l0 45.595795" fill-rule="nonzero"/><path stroke="#f6b26b" stroke-width="2.0" stroke-linecap="butt" d="m501.7979 347.02676l0 123.787415" fill-rule="nonzero"/><path stroke="#f6b26b" stroke-width="4.0" stroke-linecap="butt" d="m335.6299 303.43097l168.168 0" fill-rule="nonzero"/><path stroke="#f6b26b" stroke-width="4.0" stroke-linecap="butt" d="m335.6299 345.02676l168.168 0" fill-rule="nonzero"/><path stroke="#f6b26b" stroke-width="2.0" stroke-linecap="butt" d="m336.6299 386.62256l166.168 0" fill-rule="nonzero"/><path stroke="#f6b26b" stroke-width="2.0" stroke-linecap="butt" d="m336.6299 428.21838l166.168 0" fill-rule="nonzero"/><path stroke="#f6b26b" stroke-width="2.0" stroke-linecap="butt" d="m336.6299 469.81418l166.168 0" fill-rule="nonzero"/></g></svg>