<svg version="1.1" viewBox="0.0 0.0 960.0 540.0" fill="none" stroke="none" stroke-linecap="square" stroke-miterlimit="10" xmlns:xlink="http://www.w3.org/1999/xlink" xmlns="http://www.w3.org/2000/svg"><clipPath id="g13d5c9ea809_0_0.0"><path d="m0 0l960.0 0l0 540.0l-960.0 0l0 -540.0z" clip-rule="nonzero"/></clipPath><g clip-path="url(#g13d5c9ea809_0_0.0)"><path fill="#ffffff" d="m0 0l960.0 0l0 540.0l-960.0 0z" fill-rule="evenodd"/><path fill="#000000" fill-opacity="0.0" d="m636.7743 190.57059l0 0c0 -28.675888 23.246399 -51.922287 51.922302 -51.922287l209.25775 0l0 0c13.77063 0 26.977295 5.4703674 36.7146 15.207687c9.737305 9.73732 15.207703 22.943954 15.207703 36.7146l0 207.68295c0 28.675903 -23.246399 51.922302 -51.922302 51.922302l-209.25775 0l0 0c-28.675903 0 -51.922302 -23.246399 -51.922302 -51.922302z" fill-rule="evenodd"/><path stroke="#6366f1" stroke-width="4.0" stroke-linejoin="round" stroke-linecap="butt" d="m636.7743 190.57059l0 0c0 -28.675888 23.246399 -51.922287 51.922302 -51.922287l209.25775 0l0 0c13.77063 0 26.977295 5.4703674 36.7146 15.207687c9.737305 9.73732 15.207703 22.943954 15.207703 36.7146l0 207.68295c0 28.675903 -23.246399 51.922302 -51.922302 51.922302l-209.25775 0l0 0c-28.675903 0 -51.922302 -23.246399 -51.922302 -51.922302z" fill-rule="evenodd"/><path fill="#000000" fill-opacity="0.0" d="m555.5958 265.03937l81.165344 0" fill-rule="evenodd"/><path stroke="#595959" stroke-width="8.0" stroke-linejoin="round" stroke-linecap="butt" d="m555.5958 265.03937l33.165344 0" fill-rule="evenodd"/><path fill="#595959" stroke="#595959" stroke-width="8.0" stroke-linecap="butt" d="m588.76117 278.25323l36.30475 -13.213867l-36.30475 -13.213852z" fill-rule="evenodd"/><path fill="#000000" fill-opacity="0.0" d="m59.7979 232.6588l24.031498 0l0 42.01573l-24.031498 0z" fill-rule="evenodd"/><path fill="#000000" fill-opacity="0.0" d="m7.2309713 143.94366l0 0c0 -38.98831 31.606274 -70.59458 70.59459 -70.59458l397.07855 0c18.72284 0 36.678833 7.437622 49.917908 20.676674c13.239014 13.239052 20.676636 31.19506 20.676636 49.917908l0 282.36987c0 38.98831 -31.606262 70.594604 -70.59454 70.594604l-397.07855 0l0 0c-38.988316 0 -70.59459 -31.606293 -70.59459 -70.594604z" fill-rule="evenodd"/><path stroke="#6366f1" stroke-width="4.0" stroke-linejoin="round" stroke-linecap="butt" d="m7.2309713 143.94366l0 0c0 -38.98831 31.606274 -70.59458 70.59459 -70.59458l397.07855 0c18.72284 0 36.678833 7.437622 49.917908 20.676674c13.239014 13.239052 20.676636 31.19506 20.676636 49.917908l0 282.36987c0 38.98831 -31.606262 70.594604 -70.59454 70.594604l-397.07855 0l0 0c-38.988316 0 -70.59459 -31.606293 -70.59459 -70.594604z" fill-rule="evenodd"/><path fill="#000000" fill-opacity="0.0" d="m62.396324 222.21523l19.716537 0l0 42.01573l-19.716537 0z" fill-rule="evenodd"/><defs><radialGradient id="g13d5c9ea809_0_0.1" gradientUnits="userSpaceOnUse" gradientTransform="matrix(5.405324221326973 0.0 0.0 5.405324221326973 0.0 0.0)" spreadMethod="pad" cx="8.543875040085059" cy="38.16544197525762" fx="8.543875040085059" fy="38.16544197525762" r="5.405324459075928"><stop offset="0.0" stop-color="#3177ee"/><stop offset="1.0" stop-color="#113d8a"/></radialGradient></defs><path shape-rendering="crispEdges" fill="url(#g13d5c9ea809_0_0.1)" d="m25.661417 185.49869l41.042 0l0 41.595795l-41.042 0l0 -41.595795z" fill-rule="nonzero"/><defs><radialGradient id="g13d5c9ea809_0_0.2" gradientUnits="userSpaceOnUse" gradientTransform="matrix(5.405324221326973 0.0 0.0 5.405324221326973 0.0 0.0)" spreadMethod="pad" cx="8.543875040085059" cy="45.8607806490815" fx="8.543875040085059" fy="45.8607806490815" r="5.405324459075928"><stop offset="0.0" stop-color="#3177ee"/><stop offset="1.0" stop-color="#113d8a"/></radialGradient></defs><path shape-rendering="crispEdges" fill="url(#g13d5c9ea809_0_0.2)" d="m25.661417 227.09448l41.042 0l0 41.595795l-41.042 0l0 -41.595795z" fill-rule="nonzero"/><defs><radialGradient id="g13d5c9ea809_0_0.3" gradientUnits="userSpaceOnUse" gradientTransform="matrix(5.405324221326973 0.0 0.0 5.405324221326973 0.0 0.0)" spreadMethod="pad" cx="8.543875040085059" cy="53.556119322905374" fx="8.543875040085059" fy="53.556119322905374" r="5.405324459075928"><stop offset="0.0" stop-color="#3177ee"/><stop offset="1.0" stop-color="#113d8a"/></radialGradient></defs><path shape-rendering="crispEdges" fill="url(#g13d5c9ea809_0_0.3)" d="m25.661417 268.69028l41.042 0l0 41.595825l-41.042 0l0 -41.595825z" fill-rule="nonzero"/><defs><radialGradient id="g13d5c9ea809_0_0.4" gradientUnits="userSpaceOnUse" gradientTransform="matrix(5.405324221326973 0.0 0.0 5.405324221326973 0.0 0.0)" spreadMethod="pad" cx="8.543875040085059" cy="61.25145799672925" fx="8.543875040085059" fy="61.25145799672925" r="5.405324459075928"><stop offset="0.0" stop-color="#3177ee"/><stop offset="1.0" stop-color="#113d8a"/></radialGradient></defs><path shape-rendering="crispEdges" fill="url(#g13d5c9ea809_0_0.4)" d="m25.661417 310.2861l41.042 0l0 41.595795l-41.042 0l0 -41.595795z" fill-rule="nonzero"/><path stroke="#4285f4" stroke-width="4.0" stroke-linecap="butt" d="m25.661417 183.49869l0 45.595795" fill-rule="nonzero"/><path stroke="#4285f4" stroke-width="2.0" stroke-linecap="butt" d="m25.661417 229.09448l0 123.787415" fill-rule="nonzero"/><path stroke="#4285f4" stroke-width="4.0" stroke-linecap="butt" d="m66.703415 183.49869l0 45.595795" fill-rule="nonzero"/><path stroke="#4285f4" stroke-width="2.0" stroke-linecap="butt" d="m66.703415 229.09448l0 123.787415" fill-rule="nonzero"/><path stroke="#4285f4" stroke-width="4.0" stroke-linecap="butt" d="m107.74541 183.49869l0 45.595795" fill-rule="nonzero"/><path stroke="#4285f4" stroke-width="2.0" stroke-linecap="butt" d="m107.74541 229.09448l0 123.787415" fill-rule="nonzero"/><path stroke="#4285f4" stroke-width="4.0" stroke-linecap="butt" d="m23.661417 185.49869l86.08399 0" fill-rule="nonzero"/><path stroke="#4285f4" stroke-width="4.0" stroke-linecap="butt" d="m23.661417 227.09448l86.08399 0" fill-rule="nonzero"/><path stroke="#4285f4" stroke-width="2.0" stroke-linecap="butt" d="m24.661417 268.69028l84.08399 0" fill-rule="nonzero"/><path stroke="#4285f4" stroke-width="2.0" stroke-linecap="butt" d="m24.661417 310.2861l84.08399 0" fill-rule="nonzero"/><path stroke="#4285f4" stroke-width="2.0" stroke-linecap="butt" d="m24.661417 351.8819l84.08399 0" fill-rule="nonzero"/><defs><radialGradient id="g13d5c9ea809_0_0.5" gradientUnits="userSpaceOnUse" gradientTransform="matrix(5.405324221326973 0.0 0.0 5.405324221326973 0.0 0.0)" spreadMethod="pad" cx="44.04887023380047" cy="25.86008655677929" fx="44.04887023380047" fy="25.86008655677929" r="5.405324459075928"><stop offset="0.0" stop-color="#51ab2a"/><stop offset="1.0" stop-color="#203e13"/></radialGradient></defs><path shape-rendering="crispEdges" fill="url(#g13d5c9ea809_0_0.5)" d="m217.57742 118.98425l41.041992 0l0 41.595795l-41.041992 0l0 -41.595795z" fill-rule="nonzero"/><defs><radialGradient id="g13d5c9ea809_0_0.6" gradientUnits="userSpaceOnUse" gradientTransform="matrix(5.405324221326973 0.0 0.0 5.405324221326973 0.0 0.0)" spreadMethod="pad" cx="44.04887023380047" cy="33.55542523060316" fx="44.04887023380047" fy="33.55542523060316" r="5.405324459075928"><stop offset="0.0" stop-color="#51ab2a"/><stop offset="1.0" stop-color="#203e13"/></radialGradient></defs><path shape-rendering="crispEdges" fill="url(#g13d5c9ea809_0_0.6)" d="m217.57742 160.58005l41.041992 0l0 41.59581l-41.041992 0l0 -41.59581z" fill-rule="nonzero"/><defs><radialGradient id="g13d5c9ea809_0_0.7" gradientUnits="userSpaceOnUse" gradientTransform="matrix(5.405324221326973 0.0 0.0 5.405324221326973 0.0 0.0)" spreadMethod="pad" cx="44.04887023380047" cy="41.25076390442704" fx="44.04887023380047" fy="41.25076390442704" r="5.405324459075928"><stop offset="0.0" stop-color="#51ab2a"/><stop offset="1.0" stop-color="#203e13"/></radialGradient></defs><path shape-rendering="crispEdges" fill="url(#g13d5c9ea809_0_0.7)" d="m217.57742 202.17586l41.041992 0l0 41.595795l-41.041992 0l0 -41.595795z" fill-rule="nonzero"/><path stroke="#93c47d" stroke-width="4.0" stroke-linecap="butt" d="m217.57742 116.98425l0 45.595795" fill-rule="nonzero"/><path stroke="#93c47d" stroke-width="2.0" stroke-linecap="butt" d="m217.57742 162.58005l0 82.191605" fill-rule="nonzero"/><path stroke="#93c47d" stroke-width="4.0" stroke-linecap="butt" d="m258.61942 116.98425l0 45.595795" fill-rule="nonzero"/><path stroke="#93c47d" stroke-width="2.0" stroke-linecap="butt" d="m258.61942 162.58005l0 82.191605" fill-rule="nonzero"/><path stroke="#93c47d" stroke-width="4.0" stroke-linecap="butt" d="m299.6614 116.98425l0 45.595795" fill-rule="nonzero"/><path stroke="#93c47d" stroke-width="2.0" stroke-linecap="butt" d="m299.6614 162.58005l0 82.191605" fill-rule="nonzero"/><path stroke="#93c47d" stroke-width="4.0" stroke-linecap="butt" d="m215.57742 118.98425l86.083984 0" fill-rule="nonzero"/><path stroke="#93c47d" stroke-width="4.0" stroke-linecap="butt" d="m215.57742 160.58005l86.083984 0" fill-rule="nonzero"/><path stroke="#93c47d" stroke-width="2.0" stroke-linecap="butt" d="m216.57742 202.17586l84.083984 0" fill-rule="nonzero"/><path stroke="#93c47d" stroke-width="2.0" stroke-linecap="butt" d="m216.57742 243.77165l84.083984 0" fill-rule="nonzero"/><path fill="#000000" fill-opacity="0.0" d="m83.8294 207.59317c6.266777 0 -6.789276 -17.236221 12.533562 -34.472443c19.32283 -17.236206 71.02455 -34.472427 142.04912 -34.472427" fill-rule="evenodd"/><path stroke="#000000" stroke-width="2.0" stroke-linejoin="round" stroke-linecap="butt" d="m83.8294 207.59317c6.266777 0 -6.789276 -17.236221 12.533562 -34.472443c9.661423 -8.618103 27.417564 -17.236206 51.636414 -23.699799c12.109421 -3.231781 25.834534 -5.924942 40.97133 -7.8101654c7.5683746 -0.94259644 15.489685 -1.6832123 23.738434 -2.1881866c4.124359 -0.25248718 8.330582 -0.44606018 12.615463 -0.5764923l1.0886383 -0.031066895" fill-rule="evenodd"/><path fill="#000000" stroke="#000000" stroke-width="2.0" stroke-linecap="butt" d="m226.45912 142.11816l9.029434 -3.429245l-9.121216 -3.1770477z" fill-rule="evenodd"/><defs><radialGradient id="g13d5c9ea809_0_0.8" gradientUnits="userSpaceOnUse" gradientTransform="matrix(5.405324221326973 0.0 0.0 5.405324221326973 0.0 0.0)" spreadMethod="pad" cx="79.55386542751587" cy="38.16529630377844" fx="79.55386542751587" fy="38.16529630377844" r="5.405324459075928"><stop offset="0.0" stop-color="#4e29aa"/><stop offset="1.0" stop-color="#1e123d"/></radialGradient></defs><path shape-rendering="crispEdges" fill="url(#g13d5c9ea809_0_0.8)" d="m409.49344 185.4979l41.041992 0l0 41.59581l-41.041992 0l0 -41.59581z" fill-rule="nonzero"/><defs><radialGradient id="g13d5c9ea809_0_0.9" gradientUnits="userSpaceOnUse" gradientTransform="matrix(5.405324221326973 0.0 0.0 5.405324221326973 0.0 0.0)" spreadMethod="pad" cx="79.55386542751587" cy="45.86063497760232" fx="79.55386542751587" fy="45.86063497760232" r="5.405324459075928"><stop offset="0.0" stop-color="#4e29aa"/><stop offset="1.0" stop-color="#1e123d"/></radialGradient></defs><path shape-rendering="crispEdges" fill="url(#g13d5c9ea809_0_0.9)" d="m409.49344 227.0937l41.041992 0l0 41.59581l-41.041992 0l0 -41.59581z" fill-rule="nonzero"/><path stroke="#9900ff" stroke-width="4.0" stroke-linecap="butt" d="m409.49344 183.4979l0 45.59581" fill-rule="nonzero"/><path stroke="#9900ff" stroke-width="2.0" stroke-linecap="butt" d="m409.49344 229.0937l0 40.59581" fill-rule="nonzero"/><path stroke="#9900ff" stroke-width="4.0" stroke-linecap="butt" d="m450.53543 183.4979l0 45.59581" fill-rule="nonzero"/><path stroke="#9900ff" stroke-width="2.0" stroke-linecap="butt" d="m450.53543 229.0937l0 40.59581" fill-rule="nonzero"/><path stroke="#9900ff" stroke-width="4.0" stroke-linecap="butt" d="m491.57742 183.4979l0 45.59581" fill-rule="nonzero"/><path stroke="#9900ff" stroke-width="2.0" stroke-linecap="butt" d="m491.57742 229.0937l0 40.59581" fill-rule="nonzero"/><path stroke="#9900ff" stroke-width="4.0" stroke-linecap="butt" d="m532.61945 183.4979l0 45.59581" fill-rule="nonzero"/><path stroke="#9900ff" stroke-width="2.0" stroke-linecap="butt" d="m532.61945 229.0937l0 40.59581" fill-rule="nonzero"/><path stroke="#9900ff" stroke-width="4.0" stroke-linecap="butt" d="m407.49344 185.4979l127.12601 0" fill-rule="nonzero"/><path stroke="#9900ff" stroke-width="4.0" stroke-linecap="butt" d="m407.49344 227.0937l127.12601 0" fill-rule="nonzero"/><path stroke="#9900ff" stroke-width="2.0" stroke-linecap="butt" d="m408.49344 268.6895l125.12601 0" fill-rule="nonzero"/><path fill="#000000" fill-opacity="0.0" d="m280.18372 141.79002c37.338593 0 56.007874 16.18898 74.677185 32.37796c18.669281 16.188965 37.338562 32.377945 74.677155 32.377945" fill-rule="evenodd"/><path stroke="#000000" stroke-width="2.0" stroke-linejoin="round" stroke-linecap="butt" d="m280.18372 141.79002c37.338593 0 56.007874 16.18898 74.677185 32.37796c9.334625 8.094482 18.669281 16.188965 30.337585 22.259842c5.8341675 3.035431 12.2517395 5.5649567 19.544434 7.3356323c3.6463623 0.8853302 7.5114746 1.5809479 11.631836 2.0552368c0.25750732 0.029647827 0.5160217 0.058410645 0.7755432 0.08631897l0.40274048 0.041793823" fill-rule="evenodd"/><path fill="#000000" stroke="#000000" stroke-width="2.0" stroke-linecap="butt" d="m417.3881 209.24614l9.229797 -2.8461914l-8.899933 -3.7524872z" fill-rule="evenodd"/><defs><radialGradient id="g13d5c9ea809_0_0.10" gradientUnits="userSpaceOnUse" gradientTransform="matrix(6.796791045805455 0.0 0.0 6.796791045805455 0.0 0.0)" spreadMethod="pad" cx="99.90780779664956" cy="35.1512954993859" fx="99.90780779664956" fy="35.1512954993859" r="6.796791076660156"><stop offset="0.0" stop-color="#51ab2a"/><stop offset="1.0" stop-color="#203e13"/></radialGradient></defs><path shape-rendering="crispEdges" fill="url(#g13d5c9ea809_0_0.10)" d="m658.9554 197.3202l40.194214 0l0 83.191605l-40.194214 0l0 -83.191605z" fill-rule="nonzero"/><defs><radialGradient id="g13d5c9ea809_0_0.11" gradientUnits="userSpaceOnUse" gradientTransform="matrix(5.37786067476389 0.0 0.0 5.37786067476389 0.0 0.0)" spreadMethod="pad" cx="126.26814536583981" cy="56.02780166842422" fx="126.26814536583981" fy="56.02780166842422" r="5.3778605461120605"><stop offset="0.0" stop-color="#51ab2a"/><stop offset="1.0" stop-color="#203e13"/></radialGradient></defs><path shape-rendering="crispEdges" fill="url(#g13d5c9ea809_0_0.11)" d="m658.9554 280.5118l40.194214 0l0 41.595795l-40.194214 0l0 -41.595795z" fill-rule="nonzero"/><defs><radialGradient id="g13d5c9ea809_0_0.12" gradientUnits="userSpaceOnUse" gradientTransform="matrix(5.37786067476389 0.0 0.0 5.37786067476389 0.0 0.0)" spreadMethod="pad" cx="126.26814536583981" cy="63.76243873705014" fx="126.26814536583981" fy="63.76243873705014" r="5.3778605461120605"><stop offset="0.0" stop-color="#51ab2a"/><stop offset="1.0" stop-color="#203e13"/></radialGradient></defs><path shape-rendering="crispEdges" fill="url(#g13d5c9ea809_0_0.12)" d="m658.9554 322.1076l40.194214 0l0 41.595795l-40.194214 0l0 -41.595795z" fill-rule="nonzero"/><path stroke="#6aa84f" stroke-width="4.0" stroke-linecap="butt" d="m658.9554 195.3202l0 87.191605" fill-rule="nonzero"/><path stroke="#6aa84f" stroke-width="2.0" stroke-linecap="butt" d="m658.9554 282.5118l0 82.19159" fill-rule="nonzero"/><path stroke="#6aa84f" stroke-width="4.0" stroke-linecap="butt" d="m699.1496 195.3202l0 87.191605" fill-rule="nonzero"/><path stroke="#6aa84f" stroke-width="2.0" stroke-linecap="butt" d="m699.1496 282.5118l0 82.19159" fill-rule="nonzero"/><path stroke="#6aa84f" stroke-width="4.0" stroke-linecap="butt" d="m739.3438 195.3202l0 87.191605" fill-rule="nonzero"/><path stroke="#6aa84f" stroke-width="2.0" stroke-linecap="butt" d="m739.3438 282.5118l0 82.19159" fill-rule="nonzero"/><path stroke="#6aa84f" stroke-width="4.0" stroke-linecap="butt" d="m779.5381 195.3202l0 87.191605" fill-rule="nonzero"/><path stroke="#6aa84f" stroke-width="2.0" stroke-linecap="butt" d="m779.5381 282.5118l0 82.19159" fill-rule="nonzero"/><path stroke="#4285f4" stroke-width="4.0" stroke-linecap="butt" d="m819.7323 195.3202l0 87.191605" fill-rule="nonzero"/><path stroke="#4285f4" stroke-width="2.0" stroke-linecap="butt" d="m819.7323 282.5118l0 82.19159" fill-rule="nonzero"/><path stroke="#9900ff" stroke-width="4.0" stroke-linecap="butt" d="m859.9265 195.3202l0 87.191605" fill-rule="nonzero"/><path stroke="#9900ff" stroke-width="2.0" stroke-linecap="butt" d="m859.9265 282.5118l0 82.19159" fill-rule="nonzero"/><path stroke="#9900ff" stroke-width="4.0" stroke-linecap="butt" d="m900.1207 236.91602l0 45.595795" fill-rule="nonzero"/><path stroke="#9900ff" stroke-width="2.0" stroke-linecap="butt" d="m900.1207 282.5118l0 82.19159" fill-rule="nonzero"/><path stroke="#9900ff" stroke-width="4.0" stroke-linecap="butt" d="m940.31494 195.3202l0 87.191605" fill-rule="nonzero"/><path stroke="#9900ff" stroke-width="2.0" stroke-linecap="butt" d="m940.31494 282.5118l0 82.19159" fill-rule="nonzero"/><path stroke="#6aa84f" stroke-width="4.0" stroke-linecap="butt" d="m656.9554 197.3202l160.77692 0" fill-rule="nonzero"/><path stroke="#4285f4" stroke-width="4.0" stroke-linecap="butt" d="m817.7323 197.3202l40.194214 0" fill-rule="nonzero"/><path stroke="#9900ff" stroke-width="4.0" stroke-linecap="butt" d="m857.9265 197.3202l84.38843 0" fill-rule="nonzero"/><path stroke="#9900ff" stroke-width="4.0" stroke-linecap="butt" d="m857.9265 238.91602l84.38843 0" fill-rule="nonzero"/><path stroke="#6aa84f" stroke-width="4.0" stroke-linecap="butt" d="m656.9554 280.5118l160.77692 0" fill-rule="nonzero"/><path stroke="#4285f4" stroke-width="4.0" stroke-linecap="butt" d="m817.7323 280.5118l40.194214 0" fill-rule="nonzero"/><path stroke="#9900ff" stroke-width="4.0" stroke-linecap="butt" d="m857.9265 280.5118l84.38843 0" fill-rule="nonzero"/><path stroke="#6aa84f" stroke-width="2.0" stroke-linecap="butt" d="m657.9554 322.1076l160.77692 0" fill-rule="nonzero"/><path stroke="#4285f4" stroke-width="2.0" stroke-linecap="butt" d="m818.7323 322.1076l40.194214 0" fill-rule="nonzero"/><path stroke="#9900ff" stroke-width="2.0" stroke-linecap="butt" d="m858.9265 322.1076l82.38843 0" fill-rule="nonzero"/><path stroke="#6aa84f" stroke-width="2.0" stroke-linecap="butt" d="m657.9554 363.7034l160.77692 0" fill-rule="nonzero"/><path stroke="#4285f4" stroke-width="2.0" stroke-linecap="butt" d="m818.7323 363.7034l40.194214 0" fill-rule="nonzero"/><path stroke="#9900ff" stroke-width="2.0" stroke-linecap="butt" d="m858.9265 363.7034l82.38843 0" fill-rule="nonzero"/><path fill="#eeeeee" d="m825.7402 289.063l24.031494 0l0 26.11023l-24.031494 0z" fill-rule="evenodd"/><path fill="#000000" fill-opacity="0.0" d="m828.7441 289.063l0 26.11023m-3.0039062 -22.846436l24.031494 0" fill-rule="evenodd"/><path fill="#000000" fill-opacity="0.0" d="m825.7402 289.063l24.031494 0l0 26.11023l-24.031494 0z" fill-rule="evenodd"/><path stroke="#4285f4" stroke-width="2.0" stroke-linejoin="round" stroke-linecap="butt" d="m828.7441 289.063l0 26.11023m-3.0039062 -22.846436l24.031494 0" fill-rule="evenodd"/><path stroke="#4285f4" stroke-width="2.0" stroke-linejoin="round" stroke-linecap="butt" d="m825.7402 289.063l24.031494 0l0 26.11023l-24.031494 0z" fill-rule="evenodd"/><path fill="#eeeeee" d="m825.7402 332.21783l24.031494 0l0 26.11026l-24.031494 0z" fill-rule="evenodd"/><path fill="#000000" fill-opacity="0.0" d="m828.7441 332.21783l0 26.11026m-3.0039062 -22.846466l24.031494 0" fill-rule="evenodd"/><path fill="#000000" fill-opacity="0.0" d="m825.7402 332.21783l24.031494 0l0 26.11026l-24.031494 0z" fill-rule="evenodd"/><path stroke="#6366f1" stroke-width="2.0" stroke-linejoin="round" stroke-linecap="butt" d="m828.7441 332.21783l0 26.11026m-3.0039062 -22.846466l24.031494 0" fill-rule="evenodd"/><path stroke="#6366f1" stroke-width="2.0" stroke-linejoin="round" stroke-linecap="butt" d="m825.7402 332.21783l24.031494 0l0 26.11026l-24.031494 0z" fill-rule="evenodd"/></g></svg>