<?xml version="1.0" encoding="UTF-8" standalone="no"?>
<!DOCTYPE svg PUBLIC "-//W3C//DTD SVG 1.1//EN" "http://www.w3.org/Graphics/SVG/1.1/DTD/svg11.dtd">
<!-- Generated by graphviz version 2.40.1 (20161225.0304)
 -->
<!-- Title: %0 Pages: 1 -->
<svg xmlns="http://www.w3.org/2000/svg" xmlns:xlink="http://www.w3.org/1999/xlink" width="195pt" height="169pt" viewBox="0.00 0.00 195.00 169.00">
  <g id="graph0" class="graph" transform="scale(1 1) rotate(0) translate(4 165)">
    <title>%0</title>
    <g id="a_graph0">
      <a xlink:title="Data Model">
        <polygon fill="#ffffff" stroke="transparent" points="-4,4 -4,-165 191,-165 191,4 -4,4"/>
      </a>
    </g>
    <!-- airlines -->
    <g id="node1" class="node">
      <title>airlines</title>
      <polygon fill="#efebdd" stroke="transparent" points="40,-140 40,-160 85,-160 85,-140 40,-140"/>
      <text text-anchor="start" x="41.8969" y="-145.4" font-family="Times,serif" font-size="14.00" fill="#000000">airlines</text>
      <polygon fill="#ffffff" stroke="transparent" points="40,-120 40,-140 85,-140 85,-120 40,-120"/>
      <text text-anchor="start" x="42" y="-126.4" font-family="Times,serif" text-decoration="underline" font-size="14.00" fill="#444444">carrier</text>
      <polygon fill="none" stroke="#555555" points="38.5,-119 38.5,-161 85.5,-161 85.5,-119 38.5,-119"/>
    </g>
    <!-- airports -->
    <g id="node2" class="node">
      <title>airports</title>
      <polygon fill="#efebdd" stroke="transparent" points="116,-133 116,-153 162,-153 162,-133 116,-133"/>
      <text text-anchor="start" x="117.6192" y="-138.4" font-family="Times,serif" font-size="14.00" fill="#000000">airports</text>
      <polygon fill="#ffffff" stroke="transparent" points="116,-113 116,-133 162,-133 162,-113 116,-113"/>
      <text text-anchor="start" x="118" y="-119.4" font-family="Times,serif" text-decoration="underline" font-size="14.00" fill="#444444">faa</text>
      <polygon fill="none" stroke="#555555" points="115,-112 115,-154 163,-154 163,-112 115,-112"/>
    </g>
    <!-- flights -->
    <g id="node3" class="node">
      <title>flights</title>
      <polygon fill="#efebdd" stroke="transparent" points="8,-8 8,-28 47,-28 47,-8 8,-8"/>
      <text text-anchor="start" x="9.6115" y="-13.4" font-family="Times,serif" font-size="14.00" fill="#000000">flights</text>
      <polygon fill="none" stroke="#555555" points="6.5,-7 6.5,-29 47.5,-29 47.5,-7 6.5,-7"/>
    </g>
    <!-- planes -->
    <g id="node4" class="node">
      <title>planes</title>
      <polygon fill="#efebdd" stroke="transparent" points="11,-77 11,-97 57,-97 57,-77 11,-77"/>
      <text text-anchor="start" x="16.1178" y="-82.4" font-family="Times,serif" font-size="14.00" fill="#000000">planes</text>
      <polygon fill="#ffffff" stroke="transparent" points="11,-57 11,-77 57,-77 57,-57 11,-57"/>
      <text text-anchor="start" x="12.6115" y="-63.4" font-family="Times,serif" text-decoration="underline" font-size="14.00" fill="#444444">tailnum</text>
      <polygon fill="none" stroke="#555555" points="10,-56 10,-98 58,-98 58,-56 10,-56"/>
    </g>
    <!-- weather -->
    <g id="node5" class="node">
      <title>weather</title>
      <polygon fill="#efebdd" stroke="transparent" points="85.5,-70 85.5,-90 186.5,-90 186.5,-70 85.5,-70"/>
      <text text-anchor="start" x="113.8492" y="-75.4" font-family="Times,serif" font-size="14.00" fill="#000000">weather</text>
      <polygon fill="#ffffff" stroke="transparent" points="85.5,-50 85.5,-70 186.5,-70 186.5,-50 85.5,-50"/>
      <text text-anchor="start" x="87.0056" y="-56.4" font-family="Times,serif" text-decoration="underline" font-size="14.00" fill="#444444">origin, time_hour</text>
      <polygon fill="none" stroke="#555555" points="84,-49 84,-91 187,-91 187,-49 84,-49"/>
    </g>
  </g>
</svg>
