<?xml version="1.0" encoding="UTF-8" standalone="no"?>
<!DOCTYPE svg PUBLIC "-//W3C//DTD SVG 1.1//EN" "http://www.w3.org/Graphics/SVG/1.1/DTD/svg11.dtd">
<!-- Generated by graphviz version 2.40.1 (20161225.0304)
 -->
<!-- Title: %0 Pages: 1 -->
<svg xmlns="http://www.w3.org/2000/svg" xmlns:xlink="http://www.w3.org/1999/xlink" width="176pt" height="164pt" viewBox="0.00 0.00 176.00 164.00">
  <g id="graph0" class="graph" transform="scale(1 1) rotate(0) translate(4 160)">
    <title>%0</title>
    <g id="a_graph0">
      <a xlink:title="Data Model">
        <polygon fill="#ffffff" stroke="transparent" points="-4,4 -4,-160 172,-160 172,4 -4,4"/>
      </a>
    </g>
    <!-- airlines -->
    <g id="node1" class="node">
      <title>airlines</title>
      <polygon fill="#efebdd" stroke="transparent" points="119,-62 119,-82 164,-82 164,-62 119,-62"/>
      <text text-anchor="start" x="120.8969" y="-67.4" font-family="Times,serif" font-size="14.00" fill="#000000">airlines</text>
      <polygon fill="none" stroke="#555555" points="117.5,-61 117.5,-83 164.5,-83 164.5,-61 117.5,-61"/>
    </g>
    <!-- airports -->
    <g id="node2" class="node">
      <title>airports</title>
      <polygon fill="#efebdd" stroke="transparent" points="118,-122 118,-142 164,-142 164,-122 118,-122"/>
      <text text-anchor="start" x="119.6192" y="-127.4" font-family="Times,serif" font-size="14.00" fill="#000000">airports</text>
      <polygon fill="none" stroke="#555555" points="117,-121 117,-143 165,-143 165,-121 117,-121"/>
    </g>
    <!-- flights -->
    <g id="node3" class="node">
      <title>flights</title>
      <polygon fill="#efebdd" stroke="transparent" points="44,-128 44,-148 83,-148 83,-128 44,-128"/>
      <text text-anchor="start" x="45.6115" y="-133.4" font-family="Times,serif" font-size="14.00" fill="#000000">flights</text>
      <polygon fill="none" stroke="#555555" points="42.5,-127 42.5,-149 83.5,-149 83.5,-127 42.5,-127"/>
    </g>
    <!-- planes -->
    <g id="node4" class="node">
      <title>planes</title>
      <polygon fill="#efebdd" stroke="transparent" points="44,-68 44,-88 83,-88 83,-68 44,-68"/>
      <text text-anchor="start" x="45.6178" y="-73.4" font-family="Times,serif" font-size="14.00" fill="#000000">planes</text>
      <polygon fill="none" stroke="#555555" points="42.5,-67 42.5,-89 83.5,-89 83.5,-67 42.5,-67"/>
    </g>
    <!-- weather -->
    <g id="node5" class="node">
      <title>weather</title>
      <polygon fill="#efebdd" stroke="transparent" points="3,-8 3,-28 51,-28 51,-8 3,-8"/>
      <text text-anchor="start" x="4.8492" y="-13.4" font-family="Times,serif" font-size="14.00" fill="#000000">weather</text>
      <polygon fill="none" stroke="#555555" points="2,-7 2,-29 52,-29 52,-7 2,-7"/>
    </g>
  </g>
</svg>
