<svg version="1.1" viewBox="0.0 0.0 960.0 540.0" fill="none" stroke="none" stroke-linecap="square" stroke-miterlimit="10" xmlns:xlink="http://www.w3.org/1999/xlink" xmlns="http://www.w3.org/2000/svg"><clipPath id="g13c1d2af25e_0_143.0"><path d="m0 0l960.0 0l0 540.0l-960.0 0l0 -540.0z" clip-rule="nonzero"/></clipPath><g clip-path="url(#g13c1d2af25e_0_143.0)"><path fill="#ffffff" d="m0 0l960.0 0l0 540.0l-960.0 0z" fill-rule="evenodd"/><path fill="#000000" fill-opacity="0.0" d="m513.1049 84.61038l0 0c0 -40.232067 32.614502 -72.8466 72.84656 -72.8466l291.3777 0l0 0c19.32013 0 37.848938 7.6748877 51.510315 21.336277c13.661377 13.661388 21.336304 32.190205 21.336304 51.510326l0 316.48c0 40.232086 -32.614563 72.84662 -72.84662 72.84662l-291.3777 0l0 0c-40.232056 0 -72.84656 -32.614532 -72.84656 -72.84662z" fill-rule="evenodd"/><path stroke="#6366f1" stroke-width="4.0" stroke-linejoin="round" stroke-linecap="butt" d="m513.1049 84.61038l0 0c0 -40.232067 32.614502 -72.8466 72.84656 -72.8466l291.3777 0l0 0c19.32013 0 37.848938 7.6748877 51.510315 21.336277c13.661377 13.661388 21.336304 32.190205 21.336304 51.510326l0 316.48c0 40.232086 -32.614563 72.84662 -72.84662 72.84662l-291.3777 0l0 0c-40.232056 0 -72.84656 -32.614532 -72.84656 -72.84662z" fill-rule="evenodd"/><path fill="#000000" fill-opacity="0.0" d="m385.9239 266.29535l107.93701 0" fill-rule="evenodd"/><path stroke="#595959" stroke-width="8.0" stroke-linejoin="round" stroke-linecap="butt" d="m385.9239 266.29535l59.93701 0" fill-rule="evenodd"/><path fill="#595959" stroke="#595959" stroke-width="8.0" stroke-linecap="butt" d="m445.8609 279.5092l36.30478 -13.213837l-36.30478 -13.213867z" fill-rule="evenodd"/><path stroke="#4285f4" stroke-width="4.0" stroke-linecap="butt" d="m553.66144 183.49869l0 45.595795" fill-rule="nonzero"/><path stroke="#4285f4" stroke-width="2.0" stroke-linecap="butt" d="m553.66144 229.09448l0 123.787415" fill-rule="nonzero"/><path stroke="#4285f4" stroke-width="4.0" stroke-linecap="butt" d="m594.7034 183.49869l0 45.595795" fill-rule="nonzero"/><path stroke="#4285f4" stroke-width="2.0" stroke-linecap="butt" d="m594.7034 229.09448l0 123.787415" fill-rule="nonzero"/><path stroke="#4285f4" stroke-width="4.0" stroke-linecap="butt" d="m635.7454 183.49869l0 45.595795" fill-rule="nonzero"/><path stroke="#4285f4" stroke-width="2.0" stroke-linecap="butt" d="m635.7454 229.09448l0 123.787415" fill-rule="nonzero"/><path stroke="#4285f4" stroke-width="4.0" stroke-linecap="butt" d="m676.7874 183.49869l0 45.595795" fill-rule="nonzero"/><path stroke="#4285f4" stroke-width="2.0" stroke-linecap="butt" d="m676.7874 229.09448l0 123.787415" fill-rule="nonzero"/><path stroke="#4285f4" stroke-width="4.0" stroke-linecap="butt" d="m717.8294 183.49869l0 45.595795" fill-rule="nonzero"/><path stroke="#4285f4" stroke-width="2.0" stroke-linecap="butt" d="m717.8294 229.09448l0 123.787415" fill-rule="nonzero"/><path stroke="#4285f4" stroke-width="4.0" stroke-linecap="butt" d="m551.66144 185.49869l168.16797 0" fill-rule="nonzero"/><path stroke="#4285f4" stroke-width="4.0" stroke-linecap="butt" d="m551.66144 227.09448l168.16797 0" fill-rule="nonzero"/><path stroke="#4285f4" stroke-width="2.0" stroke-linecap="butt" d="m552.66144 268.69028l166.16797 0" fill-rule="nonzero"/><path stroke="#4285f4" stroke-width="2.0" stroke-linecap="butt" d="m552.66144 310.2861l166.16797 0" fill-rule="nonzero"/><path stroke="#4285f4" stroke-width="2.0" stroke-linecap="butt" d="m552.66144 351.8819l166.16797 0" fill-rule="nonzero"/><path stroke="#93c47d" stroke-width="4.0" stroke-linecap="butt" d="m753.62994 66.84777l0 45.595802" fill-rule="nonzero"/><path stroke="#93c47d" stroke-width="2.0" stroke-linecap="butt" d="m753.62994 112.44357l0 123.7874" fill-rule="nonzero"/><path stroke="#93c47d" stroke-width="4.0" stroke-linecap="butt" d="m794.67194 66.84777l0 45.595802" fill-rule="nonzero"/><path stroke="#93c47d" stroke-width="2.0" stroke-linecap="butt" d="m794.67194 112.44357l0 123.7874" fill-rule="nonzero"/><path stroke="#93c47d" stroke-width="4.0" stroke-linecap="butt" d="m835.7139 66.84777l0 45.595802" fill-rule="nonzero"/><path stroke="#93c47d" stroke-width="2.0" stroke-linecap="butt" d="m835.7139 112.44357l0 123.7874" fill-rule="nonzero"/><path stroke="#93c47d" stroke-width="4.0" stroke-linecap="butt" d="m876.7559 66.84777l0 45.595802" fill-rule="nonzero"/><path stroke="#93c47d" stroke-width="2.0" stroke-linecap="butt" d="m876.7559 112.44357l0 123.7874" fill-rule="nonzero"/><path stroke="#93c47d" stroke-width="4.0" stroke-linecap="butt" d="m917.7979 66.84777l0 45.595802" fill-rule="nonzero"/><path stroke="#93c47d" stroke-width="2.0" stroke-linecap="butt" d="m917.7979 112.44357l0 123.7874" fill-rule="nonzero"/><path stroke="#93c47d" stroke-width="4.0" stroke-linecap="butt" d="m751.62994 68.84777l168.16797 0" fill-rule="nonzero"/><path stroke="#93c47d" stroke-width="4.0" stroke-linecap="butt" d="m751.62994 110.44357l168.16797 0" fill-rule="nonzero"/><path stroke="#93c47d" stroke-width="2.0" stroke-linecap="butt" d="m752.62994 152.03937l166.16797 0" fill-rule="nonzero"/><path stroke="#93c47d" stroke-width="2.0" stroke-linecap="butt" d="m752.62994 193.63518l166.16797 0" fill-rule="nonzero"/><path stroke="#93c47d" stroke-width="2.0" stroke-linecap="butt" d="m752.62994 235.23097l166.16797 0" fill-rule="nonzero"/><path stroke="#f6b26b" stroke-width="4.0" stroke-linecap="butt" d="m753.62994 266.96378l0 45.595795" fill-rule="nonzero"/><path stroke="#f6b26b" stroke-width="2.0" stroke-linecap="butt" d="m753.62994 312.55957l0 123.787415" fill-rule="nonzero"/><path stroke="#f6b26b" stroke-width="4.0" stroke-linecap="butt" d="m794.67194 266.96378l0 45.595795" fill-rule="nonzero"/><path stroke="#f6b26b" stroke-width="2.0" stroke-linecap="butt" d="m794.67194 312.55957l0 123.787415" fill-rule="nonzero"/><path stroke="#f6b26b" stroke-width="4.0" stroke-linecap="butt" d="m835.7139 266.96378l0 45.595795" fill-rule="nonzero"/><path stroke="#f6b26b" stroke-width="2.0" stroke-linecap="butt" d="m835.7139 312.55957l0 123.787415" fill-rule="nonzero"/><path stroke="#f6b26b" stroke-width="4.0" stroke-linecap="butt" d="m876.7559 266.96378l0 45.595795" fill-rule="nonzero"/><path stroke="#f6b26b" stroke-width="2.0" stroke-linecap="butt" d="m876.7559 312.55957l0 123.787415" fill-rule="nonzero"/><path stroke="#f6b26b" stroke-width="4.0" stroke-linecap="butt" d="m917.7979 266.96378l0 45.595795" fill-rule="nonzero"/><path stroke="#f6b26b" stroke-width="2.0" stroke-linecap="butt" d="m917.7979 312.55957l0 123.787415" fill-rule="nonzero"/><path stroke="#f6b26b" stroke-width="4.0" stroke-linecap="butt" d="m751.62994 268.96378l168.16797 0" fill-rule="nonzero"/><path stroke="#f6b26b" stroke-width="4.0" stroke-linecap="butt" d="m751.62994 310.55957l168.16797 0" fill-rule="nonzero"/><path stroke="#f6b26b" stroke-width="2.0" stroke-linecap="butt" d="m752.62994 352.1554l166.16797 0" fill-rule="nonzero"/><path stroke="#f6b26b" stroke-width="2.0" stroke-linecap="butt" d="m752.62994 393.7512l166.16797 0" fill-rule="nonzero"/><path stroke="#f6b26b" stroke-width="2.0" stroke-linecap="butt" d="m752.62994 435.347l166.16797 0" fill-rule="nonzero"/><path stroke="#4285f4" stroke-width="4.0" stroke-linecap="butt" d="m21.729658 84.55905l0 45.59581" fill-rule="nonzero"/><path stroke="#4285f4" stroke-width="2.0" stroke-linecap="butt" d="m21.729658 130.15486l0 123.7874" fill-rule="nonzero"/><path stroke="#4285f4" stroke-width="4.0" stroke-linecap="butt" d="m62.771652 84.55905l0 45.59581" fill-rule="nonzero"/><path stroke="#4285f4" stroke-width="2.0" stroke-linecap="butt" d="m62.771652 130.15486l0 123.7874" fill-rule="nonzero"/><path stroke="#4285f4" stroke-width="4.0" stroke-linecap="butt" d="m103.81365 84.55905l0 45.59581" fill-rule="nonzero"/><path stroke="#4285f4" stroke-width="2.0" stroke-linecap="butt" d="m103.81365 130.15486l0 123.7874" fill-rule="nonzero"/><path stroke="#4285f4" stroke-width="4.0" stroke-linecap="butt" d="m144.85564 84.55905l0 45.59581" fill-rule="nonzero"/><path stroke="#4285f4" stroke-width="2.0" stroke-linecap="butt" d="m144.85564 130.15486l0 123.7874" fill-rule="nonzero"/><path stroke="#4285f4" stroke-width="4.0" stroke-linecap="butt" d="m185.89764 84.55905l0 45.59581" fill-rule="nonzero"/><path stroke="#4285f4" stroke-width="2.0" stroke-linecap="butt" d="m185.89764 130.15486l0 123.7874" fill-rule="nonzero"/><path stroke="#4285f4" stroke-width="4.0" stroke-linecap="butt" d="m19.729658 86.55905l168.16798 0" fill-rule="nonzero"/><path stroke="#4285f4" stroke-width="4.0" stroke-linecap="butt" d="m19.729658 128.15486l168.16798 0" fill-rule="nonzero"/><path stroke="#4285f4" stroke-width="2.0" stroke-linecap="butt" d="m20.729658 169.75066l166.16798 0" fill-rule="nonzero"/><path stroke="#4285f4" stroke-width="2.0" stroke-linecap="butt" d="m20.729658 211.34645l166.16798 0" fill-rule="nonzero"/><path stroke="#4285f4" stroke-width="2.0" stroke-linecap="butt" d="m20.729658 252.94226l166.16798 0" fill-rule="nonzero"/><path shape-rendering="crispEdges" fill="#ffffff" d="m195.29921 91.59843l41.041992 0l0 41.595802l-41.041992 0l0 -41.595802z" fill-rule="nonzero"/><path shape-rendering="crispEdges" fill="#ffffff" d="m236.3412 91.59843l41.042007 0l0 41.595802l-41.042007 0l0 -41.595802z" fill-rule="nonzero"/><path shape-rendering="crispEdges" fill="#ffffff" d="m277.3832 91.59843l41.041992 0l0 41.595802l-41.041992 0l0 -41.595802z" fill-rule="nonzero"/><path shape-rendering="crispEdges" fill="#ffffff" d="m318.4252 91.59843l41.041992 0l0 41.595802l-41.041992 0l0 -41.595802z" fill-rule="nonzero"/><path shape-rendering="crispEdges" fill="#ffffff" d="m195.29921 133.19423l41.041992 0l0 41.595795l-41.041992 0l0 -41.595795z" fill-rule="nonzero"/><path shape-rendering="crispEdges" fill="#ffffff" d="m236.3412 133.19423l41.042007 0l0 41.595795l-41.042007 0l0 -41.595795z" fill-rule="nonzero"/><path shape-rendering="crispEdges" fill="#ffffff" d="m277.3832 133.19423l41.041992 0l0 41.595795l-41.041992 0l0 -41.595795z" fill-rule="nonzero"/><path shape-rendering="crispEdges" fill="#ffffff" d="m318.4252 133.19423l41.041992 0l0 41.595795l-41.041992 0l0 -41.595795z" fill-rule="nonzero"/><path shape-rendering="crispEdges" fill="#ffffff" d="m195.29921 174.79002l41.041992 0l0 41.59581l-41.041992 0l0 -41.59581z" fill-rule="nonzero"/><path shape-rendering="crispEdges" fill="#ffffff" d="m236.3412 174.79002l41.042007 0l0 41.59581l-41.042007 0l0 -41.59581z" fill-rule="nonzero"/><path shape-rendering="crispEdges" fill="#ffffff" d="m277.3832 174.79002l41.041992 0l0 41.59581l-41.041992 0l0 -41.59581z" fill-rule="nonzero"/><path shape-rendering="crispEdges" fill="#ffffff" d="m318.4252 174.79002l41.041992 0l0 41.59581l-41.041992 0l0 -41.59581z" fill-rule="nonzero"/><path shape-rendering="crispEdges" fill="#ffffff" d="m195.29921 216.38583l41.041992 0l0 41.595795l-41.041992 0l0 -41.595795z" fill-rule="nonzero"/><path shape-rendering="crispEdges" fill="#ffffff" d="m236.3412 216.38583l41.042007 0l0 41.595795l-41.042007 0l0 -41.595795z" fill-rule="nonzero"/><path shape-rendering="crispEdges" fill="#ffffff" d="m277.3832 216.38583l41.041992 0l0 41.595795l-41.041992 0l0 -41.595795z" fill-rule="nonzero"/><path shape-rendering="crispEdges" fill="#ffffff" d="m318.4252 216.38583l41.041992 0l0 41.595795l-41.041992 0l0 -41.595795z" fill-rule="nonzero"/><path stroke="#93c47d" stroke-width="4.0" stroke-linecap="butt" d="m195.29921 89.59843l0 45.595802" fill-rule="nonzero"/><path stroke="#93c47d" stroke-width="2.0" stroke-linecap="butt" d="m195.29921 135.19423l0 123.7874" fill-rule="nonzero"/><path stroke="#93c47d" stroke-width="4.0" stroke-linecap="butt" d="m236.3412 89.59843l0 45.595802" fill-rule="nonzero"/><path stroke="#93c47d" stroke-width="2.0" stroke-linecap="butt" d="m236.3412 135.19423l0 123.7874" fill-rule="nonzero"/><path stroke="#93c47d" stroke-width="4.0" stroke-linecap="butt" d="m277.3832 89.59843l0 45.595802" fill-rule="nonzero"/><path stroke="#93c47d" stroke-width="2.0" stroke-linecap="butt" d="m277.3832 135.19423l0 123.7874" fill-rule="nonzero"/><path stroke="#93c47d" stroke-width="4.0" stroke-linecap="butt" d="m318.4252 89.59843l0 45.595802" fill-rule="nonzero"/><path stroke="#93c47d" stroke-width="2.0" stroke-linecap="butt" d="m318.4252 135.19423l0 123.7874" fill-rule="nonzero"/><path stroke="#93c47d" stroke-width="4.0" stroke-linecap="butt" d="m359.4672 89.59843l0 45.595802" fill-rule="nonzero"/><path stroke="#93c47d" stroke-width="2.0" stroke-linecap="butt" d="m359.4672 135.19423l0 123.7874" fill-rule="nonzero"/><path stroke="#93c47d" stroke-width="4.0" stroke-linecap="butt" d="m193.29921 91.59843l168.16798 0" fill-rule="nonzero"/><path stroke="#93c47d" stroke-width="4.0" stroke-linecap="butt" d="m193.29921 133.19423l168.16798 0" fill-rule="nonzero"/><path stroke="#93c47d" stroke-width="2.0" stroke-linecap="butt" d="m194.29921 174.79002l166.16798 0" fill-rule="nonzero"/><path stroke="#93c47d" stroke-width="2.0" stroke-linecap="butt" d="m194.29921 216.38583l166.16798 0" fill-rule="nonzero"/><path stroke="#93c47d" stroke-width="2.0" stroke-linecap="butt" d="m194.29921 257.98163l166.16798 0" fill-rule="nonzero"/><path shape-rendering="crispEdges" fill="#ffffff" d="m62.771652 327.81784l41.042 0l0 41.595795l-41.042 0l0 -41.595795z" fill-rule="nonzero"/><path shape-rendering="crispEdges" fill="#ffffff" d="m103.81365 327.81784l41.041985 0l0 41.595795l-41.041985 0l0 -41.595795z" fill-rule="nonzero"/><path shape-rendering="crispEdges" fill="#ffffff" d="m144.85564 327.81784l41.042007 0l0 41.595795l-41.042007 0l0 -41.595795z" fill-rule="nonzero"/><path shape-rendering="crispEdges" fill="#ffffff" d="m185.89764 327.81784l41.041992 0l0 41.595795l-41.041992 0l0 -41.595795z" fill-rule="nonzero"/><path shape-rendering="crispEdges" fill="#ffffff" d="m62.771652 369.41364l41.042 0l0 41.595825l-41.042 0l0 -41.595825z" fill-rule="nonzero"/><path shape-rendering="crispEdges" fill="#ffffff" d="m103.81365 369.41364l41.041985 0l0 41.595825l-41.041985 0l0 -41.595825z" fill-rule="nonzero"/><path shape-rendering="crispEdges" fill="#ffffff" d="m144.85564 369.41364l41.042007 0l0 41.595825l-41.042007 0l0 -41.595825z" fill-rule="nonzero"/><path shape-rendering="crispEdges" fill="#ffffff" d="m185.89764 369.41364l41.041992 0l0 41.595825l-41.041992 0l0 -41.595825z" fill-rule="nonzero"/><path shape-rendering="crispEdges" fill="#ffffff" d="m62.771652 411.00946l41.042 0l0 41.595795l-41.042 0l0 -41.595795z" fill-rule="nonzero"/><path shape-rendering="crispEdges" fill="#ffffff" d="m103.81365 411.00946l41.041985 0l0 41.595795l-41.041985 0l0 -41.595795z" fill-rule="nonzero"/><path shape-rendering="crispEdges" fill="#ffffff" d="m144.85564 411.00946l41.042007 0l0 41.595795l-41.042007 0l0 -41.595795z" fill-rule="nonzero"/><path shape-rendering="crispEdges" fill="#ffffff" d="m185.89764 411.00946l41.041992 0l0 41.595795l-41.041992 0l0 -41.595795z" fill-rule="nonzero"/><path shape-rendering="crispEdges" fill="#ffffff" d="m62.771652 452.60526l41.042 0l0 41.595795l-41.042 0l0 -41.595795z" fill-rule="nonzero"/><path shape-rendering="crispEdges" fill="#ffffff" d="m103.81365 452.60526l41.041985 0l0 41.595795l-41.041985 0l0 -41.595795z" fill-rule="nonzero"/><path shape-rendering="crispEdges" fill="#ffffff" d="m144.85564 452.60526l41.042007 0l0 41.595795l-41.042007 0l0 -41.595795z" fill-rule="nonzero"/><path shape-rendering="crispEdges" fill="#ffffff" d="m185.89764 452.60526l41.041992 0l0 41.595795l-41.041992 0l0 -41.595795z" fill-rule="nonzero"/><path stroke="#ff9900" stroke-width="4.0" stroke-linecap="butt" d="m62.771652 325.81784l0 45.595795" fill-rule="nonzero"/><path stroke="#ff9900" stroke-width="2.0" stroke-linecap="butt" d="m62.771652 371.41364l0 123.787415" fill-rule="nonzero"/><path stroke="#ff9900" stroke-width="4.0" stroke-linecap="butt" d="m103.81365 325.81784l0 45.595795" fill-rule="nonzero"/><path stroke="#ff9900" stroke-width="2.0" stroke-linecap="butt" d="m103.81365 371.41364l0 123.787415" fill-rule="nonzero"/><path stroke="#ff9900" stroke-width="4.0" stroke-linecap="butt" d="m144.85564 325.81784l0 45.595795" fill-rule="nonzero"/><path stroke="#ff9900" stroke-width="2.0" stroke-linecap="butt" d="m144.85564 371.41364l0 123.787415" fill-rule="nonzero"/><path stroke="#ff9900" stroke-width="4.0" stroke-linecap="butt" d="m185.89764 325.81784l0 45.595795" fill-rule="nonzero"/><path stroke="#ff9900" stroke-width="2.0" stroke-linecap="butt" d="m185.89764 371.41364l0 123.787415" fill-rule="nonzero"/><path stroke="#ff9900" stroke-width="4.0" stroke-linecap="butt" d="m226.93964 325.81784l0 45.595795" fill-rule="nonzero"/><path stroke="#ff9900" stroke-width="2.0" stroke-linecap="butt" d="m226.93964 371.41364l0 123.787415" fill-rule="nonzero"/><path stroke="#ff9900" stroke-width="4.0" stroke-linecap="butt" d="m60.771652 327.81784l168.16798 0" fill-rule="nonzero"/><path stroke="#ff9900" stroke-width="4.0" stroke-linecap="butt" d="m60.771652 369.41364l168.16798 0" fill-rule="nonzero"/><path stroke="#ff9900" stroke-width="2.0" stroke-linecap="butt" d="m61.771652 411.00946l166.16798 0" fill-rule="nonzero"/><path stroke="#ff9900" stroke-width="2.0" stroke-linecap="butt" d="m61.771652 452.60526l166.16798 0" fill-rule="nonzero"/><path stroke="#ff9900" stroke-width="2.0" stroke-linecap="butt" d="m61.771652 494.20105l166.16798 0" fill-rule="nonzero"/><path fill="#000000" fill-opacity="0.0" d="m0 86.940414l0 0c0 -21.506195 17.434216 -38.940414 38.94041 -38.940414l302.56012 0c10.327667 0 20.2323 4.1026382 27.535034 11.405384c7.302765 7.302746 11.4053955 17.207386 11.4053955 27.53503l0 155.75697c0 21.506195 -17.434235 38.9404 -38.94043 38.9404l-302.56012 0c-21.506195 0 -38.94041 -17.434204 -38.94041 -38.9404z" fill-rule="evenodd"/><path stroke="#6366f1" stroke-width="4.0" stroke-linejoin="round" stroke-linecap="butt" d="m0 86.940414l0 0c0 -21.506195 17.434216 -38.940414 38.94041 -38.940414l302.56012 0c10.327667 0 20.2323 4.1026382 27.535034 11.405384c7.302765 7.302746 11.4053955 17.207386 11.4053955 27.53503l0 155.75697c0 21.506195 -17.434235 38.9404 -38.94043 38.9404l-302.56012 0c-21.506195 0 -38.94041 -17.434204 -38.94041 -38.9404z" fill-rule="evenodd"/><path fill="#000000" fill-opacity="0.0" d="m21.729658 346.44168l0 0c0 -19.966736 16.186228 -36.152954 36.152954 -36.152954l170.49724 0c9.588364 0 18.784012 3.80896 25.563995 10.588928c6.779999 6.779999 10.588959 15.975647 10.588959 25.564026l0 144.60745c0 19.966736 -16.186234 36.152954 -36.152954 36.152954l-170.49724 0c-19.966728 0 -36.152954 -16.186218 -36.152954 -36.152954z" fill-rule="evenodd"/><path stroke="#6366f1" stroke-width="4.0" stroke-linejoin="round" stroke-linecap="butt" d="m21.729658 346.44168l0 0c0 -19.966736 16.186228 -36.152954 36.152954 -36.152954l170.49724 0c9.588364 0 18.784012 3.80896 25.563995 10.588928c6.779999 6.779999 10.588959 15.975647 10.588959 25.564026l0 144.60745c0 19.966736 -16.186234 36.152954 -36.152954 36.152954l-170.49724 0c-19.966728 0 -36.152954 -16.186218 -36.152954 -36.152954z" fill-rule="evenodd"/></g></svg>