<?xml version="1.0" encoding="UTF-8" standalone="no"?>
<!DOCTYPE svg PUBLIC "-//W3C//DTD SVG 1.1//EN" "http://www.w3.org/Graphics/SVG/1.1/DTD/svg11.dtd">
<!-- Generated by graphviz version 2.40.1 (20161225.0304)
 -->
<!-- Title: %0 Pages: 1 -->
<svg xmlns="http://www.w3.org/2000/svg" xmlns:xlink="http://www.w3.org/1999/xlink" width="152pt" height="50pt" viewBox="0.00 0.00 152.00 50.00">
  <g id="graph0" class="graph" transform="scale(1 1) rotate(0) translate(4 46)">
    <title>%0</title>
    <g id="a_graph0">
      <a xlink:title="Data Model">
        <polygon fill="#ffffff" stroke="transparent" points="-4,4 -4,-46 148,-46 148,4 -4,4"/>
      </a>
    </g>
    <!-- airports -->
    <g id="node1" class="node">
      <title>airports</title>
      <polygon fill="#ed7d31" stroke="transparent" points="94,-21 94,-41 140,-41 140,-21 94,-21"/>
      <text text-anchor="start" x="95.6192" y="-26.4" font-family="Times,serif" font-size="14.00" fill="#ffffff">airports</text>
      <polygon fill="#fbe5d5" stroke="transparent" points="94,-1 94,-21 140,-21 140,-1 94,-1"/>
      <text text-anchor="start" x="96" y="-7.4" font-family="Times,serif" text-decoration="underline" font-size="14.00" fill="#444444">code</text>
      <polygon fill="none" stroke="#9e5320" stroke-opacity="0.666667" points="93,0 93,-42 141,-42 141,0 93,0"/>
    </g>
    <!-- flights -->
    <g id="node2" class="node">
      <title>flights</title>
      <polygon fill="#5b9bd5" stroke="transparent" points="8,-21 8,-41 47,-41 47,-21 8,-21"/>
      <text text-anchor="start" x="9.6115" y="-26.4" font-family="Times,serif" font-size="14.00" fill="#ffffff">flights</text>
      <polygon fill="#deebf6" stroke="transparent" points="8,-1 8,-21 47,-21 47,-1 8,-1"/>
      <text text-anchor="start" x="10" y="-6.4" font-family="Times,serif" font-size="14.00" fill="#444444">origin</text>
      <polygon fill="none" stroke="#3c678e" stroke-opacity="0.666667" points="6.5,0 6.5,-42 47.5,-42 47.5,0 6.5,0"/>
    </g>
    <!-- flights&#45;&gt;airports -->
    <g id="edge1" class="edge">
      <title>flights:origin-&gt;airports:code</title>
      <path fill="none" stroke="#555555" d="M47,-11C63.9722,-11 70.602,-11 83.6958,-11"/>
      <polygon fill="#555555" stroke="#555555" points="84,-14.5001 94,-11 84,-7.5001 84,-14.5001"/>
    </g>
  </g>
</svg>
