<svg version="1.1" viewBox="0.0 0.0 960.0 540.0" fill="none" stroke="none" stroke-linecap="square" stroke-miterlimit="10" xmlns:xlink="http://www.w3.org/1999/xlink" xmlns="http://www.w3.org/2000/svg"><clipPath id="g13d5c9ea809_0_110.0"><path d="m0 0l960.0 0l0 540.0l-960.0 0l0 -540.0z" clip-rule="nonzero"/></clipPath><g clip-path="url(#g13d5c9ea809_0_110.0)"><path fill="#ffffff" d="m0 0l960.0 0l0 540.0l-960.0 0z" fill-rule="evenodd"/><path fill="#000000" fill-opacity="0.0" d="m430.1036 278.2847l95.811005 0" fill-rule="evenodd"/><path stroke="#595959" stroke-width="8.0" stroke-linejoin="round" stroke-linecap="butt" d="m430.1036 278.2847l47.811005 0" fill-rule="evenodd"/><path fill="#595959" stroke="#595959" stroke-width="8.0" stroke-linecap="butt" d="m477.9146 291.49857l36.30481 -13.213867l-36.30481 -13.213867z" fill-rule="evenodd"/><path fill="#000000" fill-opacity="0.0" d="m59.7979 232.6588l24.031498 0l0 42.01573l-24.031498 0z" fill-rule="evenodd"/><path fill="#000000" fill-opacity="0.0" d="m62.396324 222.21523l19.716537 0l0 42.01573l-19.716537 0z" fill-rule="evenodd"/><defs><radialGradient id="g13d5c9ea809_0_110.1" gradientUnits="userSpaceOnUse" gradientTransform="matrix(7.677701915893686 0.0 0.0 7.677701915893686 0.0 0.0)" spreadMethod="pad" cx="12.893628771297136" cy="19.553368446413245" fx="12.893628771297136" fy="19.553368446413245" r="7.677701950073242"><stop offset="0.0" stop-color="#51ab2a"/><stop offset="1.0" stop-color="#203e13"/></radialGradient></defs><path shape-rendering="crispEdges" fill="url(#g13d5c9ea809_0_110.1)" d="m55.656166 110.16693l86.67454 0l0 79.916016l-86.67454 0l0 -79.916016z" fill-rule="nonzero"/><defs><radialGradient id="g13d5c9ea809_0_110.2" gradientUnits="userSpaceOnUse" gradientTransform="matrix(7.677701915893686 0.0 0.0 7.677701915893686 0.0 0.0)" spreadMethod="pad" cx="12.893628771297136" cy="29.962213615727872" fx="12.893628771297136" fy="29.962213615727872" r="7.677701950073242"><stop offset="0.0" stop-color="#51ab2a"/><stop offset="1.0" stop-color="#203e13"/></radialGradient></defs><path shape-rendering="crispEdges" fill="url(#g13d5c9ea809_0_110.2)" d="m55.656166 190.08295l86.67454 0l0 79.916016l-86.67454 0l0 -79.916016z" fill-rule="nonzero"/><defs><radialGradient id="g13d5c9ea809_0_110.3" gradientUnits="userSpaceOnUse" gradientTransform="matrix(7.677701915893686 0.0 0.0 7.677701915893686 0.0 0.0)" spreadMethod="pad" cx="12.893628771297136" cy="40.3710587850425" fx="12.893628771297136" fy="40.3710587850425" r="7.677701950073242"><stop offset="0.0" stop-color="#51ab2a"/><stop offset="1.0" stop-color="#203e13"/></radialGradient></defs><path shape-rendering="crispEdges" fill="url(#g13d5c9ea809_0_110.3)" d="m55.656166 269.99896l86.67454 0l0 79.915985l-86.67454 0l0 -79.915985z" fill-rule="nonzero"/><defs><radialGradient id="g13d5c9ea809_0_110.4" gradientUnits="userSpaceOnUse" gradientTransform="matrix(7.677701915893686 0.0 0.0 7.677701915893686 0.0 0.0)" spreadMethod="pad" cx="12.893628771297136" cy="50.77990395435713" fx="12.893628771297136" fy="50.77990395435713" r="7.677701950073242"><stop offset="0.0" stop-color="#51ab2a"/><stop offset="1.0" stop-color="#203e13"/></radialGradient></defs><path shape-rendering="crispEdges" fill="url(#g13d5c9ea809_0_110.4)" d="m55.656166 349.91495l86.67454 0l0 79.916016l-86.67454 0l0 -79.916016z" fill-rule="nonzero"/><path stroke="#6aa84f" stroke-width="4.0" stroke-linecap="butt" d="m55.656166 108.16693l0 83.916016" fill-rule="nonzero"/><path stroke="#6aa84f" stroke-width="2.0" stroke-linecap="butt" d="m55.656166 192.08295l0 238.74802" fill-rule="nonzero"/><path stroke="#6aa84f" stroke-width="4.0" stroke-linecap="butt" d="m142.3307 108.16693l0 83.916016" fill-rule="nonzero"/><path stroke="#6aa84f" stroke-width="2.0" stroke-linecap="butt" d="m142.3307 192.08295l0 238.74802" fill-rule="nonzero"/><path stroke="#6aa84f" stroke-width="4.0" stroke-linecap="butt" d="m229.00525 108.16693l0 83.916016" fill-rule="nonzero"/><path stroke="#6aa84f" stroke-width="2.0" stroke-linecap="butt" d="m229.00525 192.08295l0 238.74802" fill-rule="nonzero"/><path stroke="#6aa84f" stroke-width="4.0" stroke-linecap="butt" d="m315.67978 108.16693l0 83.916016" fill-rule="nonzero"/><path stroke="#6aa84f" stroke-width="2.0" stroke-linecap="butt" d="m315.67978 192.08295l0 238.74802" fill-rule="nonzero"/><path stroke="#6aa84f" stroke-width="4.0" stroke-linecap="butt" d="m402.35434 108.16693l0 83.916016" fill-rule="nonzero"/><path stroke="#6aa84f" stroke-width="2.0" stroke-linecap="butt" d="m402.35434 192.08295l0 238.74802" fill-rule="nonzero"/><path stroke="#6aa84f" stroke-width="4.0" stroke-linecap="butt" d="m53.656166 110.16693l350.69818 0" fill-rule="nonzero"/><path stroke="#6aa84f" stroke-width="4.0" stroke-linecap="butt" d="m53.656166 190.08295l350.69818 0" fill-rule="nonzero"/><path stroke="#6aa84f" stroke-width="2.0" stroke-linecap="butt" d="m54.656166 269.99896l348.69818 0" fill-rule="nonzero"/><path stroke="#6aa84f" stroke-width="2.0" stroke-linecap="butt" d="m54.656166 349.91495l348.69818 0" fill-rule="nonzero"/><path stroke="#6aa84f" stroke-width="2.0" stroke-linecap="butt" d="m54.656166 429.83096l348.69818 0" fill-rule="nonzero"/><path fill="#000000" fill-opacity="0.0" d="m587.7979 232.6588l24.031494 0l0 42.01573l-24.031494 0z" fill-rule="evenodd"/><path fill="#000000" fill-opacity="0.0" d="m590.3963 222.21523l19.716553 0l0 42.01573l-19.716553 0z" fill-rule="evenodd"/><defs><radialGradient id="g13d5c9ea809_0_110.5" gradientUnits="userSpaceOnUse" gradientTransform="matrix(7.423608591912604 0.0 0.0 7.423608591912604 0.0 0.0)" spreadMethod="pad" cx="78.77277040981978" cy="19.721079444118562" fx="78.77277040981978" fy="19.721079444118562" r="7.423608779907227"><stop offset="0.0" stop-color="#51ab2a"/><stop offset="1.0" stop-color="#203e13"/></radialGradient></defs><path shape-rendering="crispEdges" fill="url(#g13d5c9ea809_0_110.5)" d="m547.3937 105.91076l74.76904 0l0 80.981636l-74.76904 0l0 -80.981636z" fill-rule="nonzero"/><path shape-rendering="crispEdges" fill="#9e9e9e" d="m696.93176 105.91076l74.76904 0l0 80.981636l-74.76904 0l0 -80.981636z" fill-rule="nonzero"/><defs><radialGradient id="g13d5c9ea809_0_110.6" gradientUnits="userSpaceOnUse" gradientTransform="matrix(7.423608591912604 0.0 0.0 7.423608591912604 0.0 0.0)" spreadMethod="pad" cx="78.77277040981978" cy="30.629740143823366" fx="78.77277040981978" fy="30.629740143823366" r="7.423608779907227"><stop offset="0.0" stop-color="#51ab2a"/><stop offset="1.0" stop-color="#203e13"/></radialGradient></defs><path shape-rendering="crispEdges" fill="url(#g13d5c9ea809_0_110.6)" d="m547.3937 186.8924l74.76904 0l0 80.98163l-74.76904 0l0 -80.98163z" fill-rule="nonzero"/><path shape-rendering="crispEdges" fill="#9e9e9e" d="m696.93176 186.8924l74.76904 0l0 80.98163l-74.76904 0l0 -80.98163z" fill-rule="nonzero"/><defs><radialGradient id="g13d5c9ea809_0_110.7" gradientUnits="userSpaceOnUse" gradientTransform="matrix(7.423608591912604 0.0 0.0 7.423608591912604 0.0 0.0)" spreadMethod="pad" cx="78.77277040981978" cy="41.538400843528166" fx="78.77277040981978" fy="41.538400843528166" r="7.423608779907227"><stop offset="0.0" stop-color="#51ab2a"/><stop offset="1.0" stop-color="#203e13"/></radialGradient></defs><path shape-rendering="crispEdges" fill="url(#g13d5c9ea809_0_110.7)" d="m547.3937 267.87402l74.76904 0l0 80.98163l-74.76904 0l0 -80.98163z" fill-rule="nonzero"/><path shape-rendering="crispEdges" fill="#9e9e9e" d="m696.93176 267.87402l74.76904 0l0 80.98163l-74.76904 0l0 -80.98163z" fill-rule="nonzero"/><defs><radialGradient id="g13d5c9ea809_0_110.8" gradientUnits="userSpaceOnUse" gradientTransform="matrix(7.423608591912604 0.0 0.0 7.423608591912604 0.0 0.0)" spreadMethod="pad" cx="78.77277040981978" cy="52.44706154323297" fx="78.77277040981978" fy="52.44706154323297" r="7.423608779907227"><stop offset="0.0" stop-color="#51ab2a"/><stop offset="1.0" stop-color="#203e13"/></radialGradient></defs><path shape-rendering="crispEdges" fill="url(#g13d5c9ea809_0_110.8)" d="m547.3937 348.85565l74.76904 0l0 80.98163l-74.76904 0l0 -80.98163z" fill-rule="nonzero"/><path shape-rendering="crispEdges" fill="#9e9e9e" d="m696.93176 348.85565l74.76904 0l0 80.98163l-74.76904 0l0 -80.98163z" fill-rule="nonzero"/><path stroke="#6aa84f" stroke-width="4.0" stroke-linecap="butt" d="m547.3937 103.91076l0 84.981636" fill-rule="nonzero"/><path stroke="#6aa84f" stroke-width="2.0" stroke-linecap="butt" d="m547.3937 188.8924l0 241.94489" fill-rule="nonzero"/><path stroke="#6aa84f" stroke-width="4.0" stroke-linecap="butt" d="m622.1627 103.91076l0 84.981636" fill-rule="nonzero"/><path stroke="#6aa84f" stroke-width="2.0" stroke-linecap="butt" d="m622.1627 188.8924l0 241.94489" fill-rule="nonzero"/><path stroke="#6aa84f" stroke-width="4.0" stroke-linecap="butt" d="m696.93176 103.91076l0 84.981636" fill-rule="nonzero"/><path stroke="#6aa84f" stroke-width="2.0" stroke-linecap="butt" d="m696.93176 188.8924l0 241.94489" fill-rule="nonzero"/><path stroke="#6aa84f" stroke-width="4.0" stroke-linecap="butt" d="m771.7008 103.91076l0 84.981636" fill-rule="nonzero"/><path stroke="#6aa84f" stroke-width="2.0" stroke-linecap="butt" d="m771.7008 188.8924l0 241.94489" fill-rule="nonzero"/><path stroke="#6aa84f" stroke-width="4.0" stroke-linecap="butt" d="m846.4698 103.91076l0 84.981636" fill-rule="nonzero"/><path stroke="#6aa84f" stroke-width="2.0" stroke-linecap="butt" d="m846.4698 188.8924l0 241.94489" fill-rule="nonzero"/><path stroke="#6aa84f" stroke-width="4.0" stroke-linecap="butt" d="m921.23883 103.91076l0 84.981636" fill-rule="nonzero"/><path stroke="#6aa84f" stroke-width="2.0" stroke-linecap="butt" d="m921.23883 188.8924l0 241.94489" fill-rule="nonzero"/><path stroke="#6aa84f" stroke-width="4.0" stroke-linecap="butt" d="m545.3937 105.91076l377.84515 0" fill-rule="nonzero"/><path stroke="#6aa84f" stroke-width="4.0" stroke-linecap="butt" d="m545.3937 186.8924l377.84515 0" fill-rule="nonzero"/><path stroke="#6aa84f" stroke-width="2.0" stroke-linecap="butt" d="m546.3937 267.87402l375.84515 0" fill-rule="nonzero"/><path stroke="#6aa84f" stroke-width="2.0" stroke-linecap="butt" d="m546.3937 348.85565l375.84515 0" fill-rule="nonzero"/><path stroke="#6aa84f" stroke-width="2.0" stroke-linecap="butt" d="m546.3937 429.83728l375.84515 0" fill-rule="nonzero"/></g></svg>